<svg width="44" height="46" viewBox="0 0 44 46" fill="none" xmlns="http://www.w3.org/2000/svg">
<path d="M43.75 8.70562C43.7453 8.63933 43.7329 8.5737 43.7125 8.51042C43.7152 8.48799 43.7152 8.46556 43.7125 8.44312C43.6766 8.36109 43.6288 8.28543 43.5698 8.21812L36.0698 0.718125C36.0025 0.659197 35.9269 0.611317 35.8448 0.575488H35.7772L35.5448 0.500488H11.5003C11.0861 0.500488 10.7503 0.836317 10.7503 1.25049V11.7882C6.89176 12.0112 3.41802 14.1993 1.55056 17.5829C-0.317066 20.9667 -0.317066 25.0722 1.55056 28.4558C3.41819 31.8395 6.89193 34.0275 10.7503 34.2505V44.7505C10.7503 44.9494 10.8293 45.1402 10.9699 45.2808C11.1105 45.4215 11.3014 45.5005 11.5003 45.5005H43.0003C43.1992 45.5005 43.39 45.4215 43.5306 45.2808C43.6712 45.1402 43.7503 44.9494 43.7503 44.7505V8.75049L43.75 8.70562ZM41.1926 8.00048H36.25V3.05786L41.1926 8.00048ZM1.75032 23.0005C1.75032 20.4147 2.77753 17.9346 4.60598 16.1061C6.43444 14.2777 8.91449 13.2505 11.5003 13.2505C12.1964 13.2505 12.8905 13.3258 13.5702 13.4755L10.7503 22.7832C10.6479 23.1261 10.8019 23.4934 11.118 23.6607L19.7202 28.1607C18.2028 30.5403 15.7282 32.1454 12.9367 32.5613C10.1454 32.9775 7.31071 32.1635 5.1652 30.3297C3.01968 28.4962 1.7745 25.8227 1.75032 23.0005ZM12.2503 44.0005V34.2505C16.1523 33.986 19.6368 31.7142 21.4526 28.2505C21.5494 28.0737 21.5708 27.8658 21.5125 27.6729C21.4496 27.4847 21.3183 27.327 21.1449 27.2306L12.3926 22.6254L15.25 13.16C15.3062 12.9695 15.2848 12.7646 15.1901 12.5901C15.0973 12.4137 14.9379 12.2814 14.7474 12.2225C13.9355 11.9707 13.0978 11.8124 12.25 11.7501V2.00008H34.75V8.75008C34.75 8.94897 34.829 9.13982 34.9696 9.28044C35.1102 9.42106 35.3011 9.50008 35.5 9.50008H42.25V44.0001L12.2503 44.0005Z" fill="white"/>
<path d="M26.5 22.25H31C31.4141 22.25 31.75 21.9142 31.75 21.5C31.75 21.0858 31.4141 20.75 31 20.75H26.5C26.0858 20.75 25.75 21.0858 25.75 21.5C25.75 21.9142 26.0858 22.25 26.5 22.25Z" fill="black"/>
<path d="M37 25.25H26.5C26.0858 25.25 25.75 25.5858 25.75 26C25.75 26.4142 26.0858 26.75 26.5 26.75H37C37.4142 26.75 37.75 26.4142 37.75 26C37.75 25.5858 37.4142 25.25 37 25.25Z" fill="black"/>
<path d="M37 29.75H26.5C26.0858 29.75 25.75 30.0858 25.75 30.5C25.75 30.9141 26.0858 31.25 26.5 31.25H37C37.4142 31.25 37.75 30.9141 37.75 30.5C37.75 30.0858 37.4142 29.75 37 29.75Z" fill="black"/>
<path d="M17.68 13.6026C17.4828 13.4714 17.2353 13.4405 17.0123 13.5199C16.789 13.5999 16.6166 13.7807 16.5473 14.0074L14.3649 21.275C14.2584 21.6199 14.4128 21.9919 14.7322 22.1599L21.4822 25.6923V25.6926C21.5907 25.7509 21.7119 25.782 21.8348 25.7824C21.9469 25.7844 22.0578 25.7586 22.1572 25.7074C22.3712 25.6053 22.5242 25.4077 22.5697 25.175C23.0013 22.9816 22.7693 20.7091 21.9037 18.648C21.0382 16.5869 19.5781 14.8304 17.7097 13.6026L17.68 13.6026ZM21.2498 23.8703L15.9998 21.1178L17.68 15.5005C19.9286 17.3433 21.2375 20.0932 21.2498 23.0005V23.8703Z" fill="black"/>
</svg>
