<svg width="46" height="49" viewBox="0 0 46 49" fill="none" xmlns="http://www.w3.org/2000/svg">
<path d="M20.9395 16.8755C20.9399 16.4617 20.6044 16.1258 20.1905 16.1255H17.9425C17.5283 16.1255 17.1925 16.4613 17.1925 16.8755C17.1925 17.2897 17.5283 17.6255 17.9425 17.6255H20.1905C20.6044 17.6252 20.9399 17.2897 20.9395 16.8755Z" fill="black"/>
<path d="M25.8097 17.6245H28.0577C28.4719 17.6245 28.8077 17.2887 28.8077 16.8745C28.8077 16.4603 28.4719 16.1245 28.0577 16.1245H25.8097C25.3955 16.1245 25.0597 16.4603 25.0597 16.8745C25.0597 17.2887 25.3955 17.6245 25.8097 17.6245Z" fill="black"/>
<path d="M21.5018 24.3755H24.4988H24.4985C24.913 24.3755 25.2485 24.0397 25.2485 23.6255C25.2485 23.2113 24.913 22.8755 24.4985 22.8755H21.5018C21.0873 22.8755 20.7518 23.2113 20.7518 23.6255C20.7518 24.0397 21.0873 24.3755 21.5018 24.3755H21.5018Z" fill="black"/>
<path d="M34.1086 38.2612C33.7503 38.3245 33.4892 38.6359 33.4892 38.9998V47.2498V47.2495C33.4878 47.4494 33.5662 47.6412 33.7068 47.7828C33.8474 47.9241 34.0389 48.0038 34.2385 48.0038C34.438 48.0038 34.6292 47.9241 34.7698 47.7828C34.9105 47.6412 34.9888 47.4494 34.9875 47.2495V43.2567L36.531 47.5059C36.599 47.6931 36.7383 47.8454 36.9184 47.9295C37.0989 48.0139 37.3051 48.0229 37.492 47.9546C37.6791 47.8866 37.8311 47.747 37.9152 47.5669C37.9992 47.3864 38.0079 47.1802 37.9396 46.9933L34.9426 38.7433C34.8177 38.4018 34.4665 38.1989 34.1086 38.2612L34.1086 38.2612Z" fill="black"/>
<path d="M11.7612 48.0002C12.1754 48.0002 12.5109 47.6644 12.5106 47.2502V39.0006C12.5109 38.6366 12.2498 38.3249 11.8915 38.262C11.5332 38.1987 11.1813 38.4019 11.0571 38.7441L8.06011 46.9941C7.99181 47.1809 8.00051 47.3872 8.08455 47.5676C8.16859 47.7478 8.32094 47.8874 8.50777 47.9554C8.6946 48.0237 8.90085 48.0146 9.08132 47.9303C9.26145 47.8462 9.40074 47.6939 9.4687 47.5067L11.0122 43.2575V47.2503C11.0119 47.6644 11.3474 48.0003 11.7612 48.0003L11.7612 48.0002Z" fill="black"/>
<path d="M39.4615 37.2988L43.6832 47.5365C43.7987 47.8174 44.0726 48.0005 44.3763 48.0009C44.4741 48.0009 44.5712 47.9814 44.6616 47.9436C45.0443 47.7856 45.2264 47.347 45.0684 46.9642L40.8466 36.7265C39.2421 32.8399 34.7592 30.8474 31.4857 29.3926C30.8446 29.1077 30.2389 28.8385 29.7397 28.5904C27.9899 27.7199 28.7563 25.4725 28.7887 25.3801C28.7921 25.3711 28.7911 25.3621 28.7938 25.353C31.4713 22.6125 33.6744 18.4537 33.8499 14.3936C33.8589 14.3474 33.8643 8.36042 33.8643 8.36042C33.8814 6.164 33.0266 4.04995 31.4874 2.48301C29.9483 0.916062 27.8502 0.0230908 25.6538 0.000976562H20.3469C18.1505 0.0230746 16.0524 0.916062 14.5133 2.48301C12.9741 4.04995 12.1193 6.16366 12.1364 8.36009C12.1364 8.36009 12.1418 14.3471 12.1508 14.3933C12.3262 18.4533 14.5294 22.6125 17.2069 25.3527C17.2096 25.3607 17.2086 25.3688 17.2113 25.3768C17.2444 25.4719 18.0111 27.7195 16.261 28.5897C15.7618 28.8381 15.1561 29.107 14.5149 29.3919C11.2414 30.8468 6.75849 32.8393 5.15409 36.7262L0.93232 46.9639C0.77428 47.3466 0.956427 47.7852 1.33913 47.9433C1.42953 47.9811 1.52663 48.0005 1.62439 48.0005C1.92808 48.0002 2.20196 47.817 2.31747 47.5361L6.53924 37.2993C7.8223 34.1914 11.5331 32.3717 14.4952 31.0435L17.0068 34.0268V47.2499C17.0054 47.4498 17.0834 47.6417 17.2241 47.783C17.3647 47.9246 17.5562 48.0043 17.7558 48.0043C17.9553 48.0043 18.1465 47.9246 18.2874 47.783C18.4281 47.6417 18.5064 47.4498 18.5051 47.2499V35.8071L19.0746 36.4837C19.2142 36.6498 19.4188 36.7466 19.6354 36.7503H19.6475C19.8601 36.7503 20.0623 36.6598 20.2043 36.5018L21.8007 34.7262L20.0148 44.8062C19.9729 45.044 20.0476 45.287 20.2157 45.4601L22.4634 47.7727C22.6043 47.918 22.7982 47.9997 23.0004 47.9997C23.2027 47.9997 23.3965 47.918 23.5375 47.7727L25.7852 45.4601C25.9532 45.287 26.0279 45.044 25.9861 44.8062L24.2172 34.8214L25.7279 36.5016C25.8695 36.6596 26.0721 36.75 26.2847 36.75C26.2951 36.75 26.3051 36.7497 26.3155 36.7493C26.5385 36.7399 26.7454 36.6318 26.8803 36.4543L27.4957 35.6458V47.2497C27.4944 47.4496 27.5728 47.6415 27.7134 47.7828C27.854 47.9244 28.0455 48.0041 28.2451 48.0041C28.4446 48.0041 28.6362 47.9244 28.7768 47.7828C28.9174 47.6415 28.9957 47.4496 28.9944 47.2497V33.6769L31.1276 30.8741C34.144 32.2171 38.1229 34.0567 39.4615 37.2988ZM13.6349 8.35989C13.6175 6.56092 14.3142 4.82855 15.5725 3.54249C16.8307 2.25678 18.5477 1.52255 20.3467 1.50044H25.6536C27.4525 1.52253 29.1696 2.2568 30.4278 3.54249C31.6861 4.82855 32.3828 6.56092 32.3653 8.35989V13.0761C27.7914 12.513 26.7785 6.87824 26.736 6.62718C26.678 6.27796 26.3837 6.0168 26.0302 6.0014C25.6766 5.98566 25.3602 6.2197 25.2718 6.56222C23.9365 11.7165 16.1381 12.8411 13.6344 13.0705L13.6349 8.35989ZM13.6566 14.5786C15.9954 14.3877 23.0775 13.4465 25.8495 8.98038C26.7967 11.4219 28.8103 14.2274 32.3434 14.587C31.9453 20.9704 26.3172 27.0001 23.0005 27.0001C19.6824 27.0001 14.0509 20.9651 13.6566 14.5786ZM27.2278 27.6551L22.9655 31.2277L18.7602 27.7027C18.8338 27.4211 18.8787 27.1328 18.8941 26.8422C20.2887 27.8845 21.7209 28.5006 23 28.5006C24.279 28.5006 25.7114 27.8845 27.1059 26.8426C27.1206 27.1164 27.1615 27.3886 27.2278 27.6551ZM19.6658 34.8585L15.9188 30.4073C16.2781 30.2449 16.6196 30.0866 16.9277 29.9336C17.3586 29.7243 17.742 29.43 18.0557 29.0684L21.9423 32.3265L19.6658 34.8585ZM24.443 44.6899L22.9999 46.1745L21.5572 44.6899L22.9999 36.5453L24.443 44.6899ZM27.7926 32.7808C27.6834 32.8634 27.599 32.9743 27.5488 33.1012L26.2363 34.8258L23.989 32.3264L27.9168 29.0338C28.2349 29.4115 28.6283 29.7178 29.0726 29.9334C29.2761 30.0346 29.4961 30.1383 29.7238 30.2435L27.7926 32.7808Z" fill="white"/>
</svg>
