<svg width="40" height="48" viewBox="0 0 40 48" fill="none" xmlns="http://www.w3.org/2000/svg">
<path d="M30.164 42.762H3.59257C2.02057 42.762 0.740601 41.4819 0.740601 39.91V3.11369C0.740601 1.54169 2.02066 0.261719 3.59257 0.261719H31.6726C33.2446 0.261719 34.5245 1.54178 34.5245 3.11369V37.2837C34.5245 37.7257 34.1646 38.0836 33.7247 38.0836C33.2847 38.0836 32.9248 37.7236 32.9248 37.2837L32.9244 3.11369C32.9244 2.42362 32.3643 1.86183 31.6745 1.86183H3.59284C2.90277 1.86183 2.34098 2.424 2.34098 3.11369V39.91C2.34098 40.6 2.90315 41.1599 3.59284 41.1599H30.1651C30.6071 41.1599 30.965 41.5198 30.965 41.9598C30.965 42.4004 30.6071 42.7623 30.1648 42.7623L30.164 42.762Z" fill="white"/>
<path d="M31.6717 42.7619H29.0778C28.6359 42.7619 28.2779 42.402 28.2779 41.962C28.2779 41.5221 28.6379 41.1621 29.0778 41.1621H31.6717C32.3618 41.1621 32.9216 40.602 32.9216 39.9123V35.8663C32.9216 35.4243 33.2815 35.0664 33.7215 35.0664C34.1614 35.0664 34.5214 35.4263 34.5214 35.8663V39.9123C34.5237 41.4819 33.2437 42.7619 31.6717 42.7619Z" fill="white"/>
<path d="M38.4603 43.0603C38.0183 43.0603 37.6604 42.7004 37.6604 42.2604V8.0904C37.6604 7.40033 37.1002 6.83854 36.4085 6.83854C35.9666 6.83854 35.6086 6.48062 35.6086 6.03865C35.6086 5.5967 35.9686 5.23877 36.4085 5.23877C37.9805 5.23877 39.2626 6.51883 39.2626 8.09074L39.2622 42.2607C39.2622 42.7027 38.9023 43.0606 38.4603 43.0606L38.4603 43.0603Z" fill="black"/>
<path d="M34.9023 47.7378H8.32827C6.75627 47.7378 5.4763 46.4577 5.4763 44.8858C5.4763 44.4439 5.83423 44.0859 6.27619 44.0859C6.71815 44.0859 7.07607 44.4459 7.07607 44.8858C7.07607 45.5759 7.63824 46.1357 8.32793 46.1357H34.9019C35.3439 46.1357 35.7018 46.4956 35.7018 46.9356C35.7022 47.3759 35.3439 47.7378 34.9019 47.7378L34.9023 47.7378Z" fill="black"/>
<path d="M36.4083 47.738H33.8165C33.3745 47.738 33.0166 47.378 33.0166 46.9381C33.0166 46.4981 33.3765 46.1382 33.8165 46.1382H36.4083C37.1004 46.1382 37.6601 45.578 37.6601 44.8883V40.8443C37.6601 40.4024 38.0201 40.0444 38.46 40.0444C38.9 40.0444 39.2599 40.4044 39.2599 40.8443V44.8883C39.2622 46.4583 37.9802 47.738 36.4082 47.738H36.4083Z" fill="black"/>
<path d="M16.0177 6.90153H6.27543C5.83347 6.90153 5.47554 6.54361 5.47554 6.10164C5.47554 5.65968 5.83347 5.30176 6.27543 5.30176H16.0177C16.4597 5.30176 16.8176 5.65968 16.8176 6.10164C16.8176 6.54361 16.4577 6.90153 16.0177 6.90153Z" fill="black"/>
<path d="M16.0177 11.0099H6.27543C5.83347 11.0099 5.47554 10.652 5.47554 10.21C5.47554 9.76808 5.83347 9.41016 6.27543 9.41016H16.0177C16.4597 9.41016 16.8176 9.76808 16.8176 10.21C16.8176 10.652 16.4577 11.0099 16.0177 11.0099Z" fill="black"/>
<path d="M16.0177 15.1198H6.27543C5.83347 15.1198 5.47554 14.7619 5.47554 14.3199C5.47554 13.8779 5.83347 13.52 6.27543 13.52H16.0177C16.4597 13.52 16.8176 13.8779 16.8176 14.3199C16.8176 14.7619 16.4577 15.1198 16.0177 15.1198Z" fill="black"/>
<path d="M28.9863 28.6081H19.2466C18.8046 28.6081 18.4467 28.2481 18.4467 27.8082C18.4467 27.3682 18.8046 27.0083 19.2466 27.0083H28.9863C29.4283 27.0083 29.7862 27.3682 29.7862 27.8082C29.7865 28.2478 29.4283 28.6081 28.9863 28.6081Z" fill="black"/>
<path d="M28.9863 33.8718H19.2466C18.8046 33.8718 18.4467 33.5118 18.4467 33.0719C18.4467 32.6319 18.8046 32.272 19.2466 32.272H28.9863C29.4283 32.272 29.7862 32.6319 29.7862 33.0719C29.7865 33.5118 29.4283 33.8718 28.9863 33.8718Z" fill="black"/>
<path d="M28.3443 19.2301H6.2763C5.83434 19.2301 5.47641 18.8722 5.47641 18.4303C5.47641 17.9883 5.83434 17.6304 6.2763 17.6304H28.3443C28.7863 17.6304 29.1442 17.9883 29.1442 18.4303C29.1442 18.8719 28.7863 19.2301 28.3443 19.2301Z" fill="black"/>
<path d="M28.3443 23.338H6.2763C5.83434 23.338 5.47641 22.9801 5.47641 22.5382C5.47641 22.0962 5.83434 21.7383 6.2763 21.7383H28.3443C28.7863 21.7383 29.1442 22.0962 29.1442 22.5382C29.1442 22.9801 28.7863 23.338 28.3443 23.338Z" fill="black"/>
<path d="M28.3443 37.7204H6.2763C5.83434 37.7204 5.47641 37.3605 5.47641 36.9205C5.47641 36.4805 5.83434 36.1206 6.2763 36.1206H28.3443C28.7863 36.1206 29.1442 36.4805 29.1442 36.9205C29.1442 37.3605 28.7863 37.7204 28.3443 37.7204Z" fill="black"/>
<path d="M28.9863 15.1199H22.5524C22.1104 15.1199 21.7525 14.762 21.7525 14.32V6.10213C21.7525 5.66017 22.1104 5.30225 22.5524 5.30225H28.9863C29.4282 5.30225 29.7862 5.66017 29.7862 6.10213L29.7865 14.32C29.7882 14.762 29.4282 15.1199 28.9863 15.1199ZM23.3543 13.5201H28.1864V6.90202H23.3543V13.5201Z" fill="black"/>
<path d="M12.71 34.0616H6.27611C5.83415 34.0616 5.47623 33.7017 5.47623 33.2617V26.9698C5.47623 26.5278 5.83415 26.1699 6.27611 26.1699H12.71C13.152 26.1699 13.5099 26.5299 13.5099 26.9698V33.2617C13.5102 33.7037 13.152 34.0616 12.71 34.0616ZM7.076 32.4595H11.9101V27.7677H7.076V32.4595Z" fill="black"/>
</svg>
