<svg width="36" height="48" viewBox="0 0 36 48" fill="none" xmlns="http://www.w3.org/2000/svg">
<path d="M33.4689 27.1874H31.7813V6.30735C31.7793 5.63671 31.5128 4.99353 31.0397 4.51773L27.4511 0.929126C26.9753 0.456026 26.3321 0.189506 25.6615 0.1875H6.75031C6.079 0.1875 5.43511 0.45402 4.96034 0.928791C4.48556 1.40357 4.21905 2.04745 4.21905 2.71876V21.5622H2.53151C1.86019 21.5622 1.21631 21.8287 0.741536 22.3035C0.266756 22.7783 0.000244141 23.4221 0.000244141 24.0935V45.2812C0.000244141 45.9525 0.266765 46.5964 0.741536 47.0711C1.21632 47.5459 1.86019 47.8124 2.53151 47.8124H33.4692C34.1405 47.8124 34.7844 47.5459 35.2592 47.0711C35.734 46.5964 36.0005 45.9525 36.0005 45.2812V29.7189C36.0005 29.0476 35.734 28.4037 35.2592 27.9289C34.7844 27.4541 34.1405 27.1876 33.4692 27.1876L33.4689 27.1874ZM29.5407 4.87507H27.0939V2.42818L29.5407 4.87507ZM5.53131 2.71884C5.53131 2.04585 6.07707 1.50007 6.75008 1.50007H25.6612C25.7014 1.50007 25.7419 1.50007 25.7811 1.50576V5.53133C25.7811 5.89361 26.0751 6.18758 26.4373 6.18758H30.4629C30.4629 6.22709 30.4686 6.26727 30.4686 6.30744V27.1874H19.162C18.8711 27.1874 18.5898 27.0833 18.3688 26.8941L12.8594 22.1718C12.4003 21.7787 11.8164 21.5624 11.212 21.5624H5.53081L5.53131 2.71884ZM34.6879 45.2811C34.6879 45.9541 34.1421 46.4999 33.4691 46.4999H2.5314C1.8584 46.4999 1.31262 45.9541 1.31262 45.2811V24.0934C1.31262 23.4204 1.85838 22.8746 2.5314 22.8746H11.2125C11.5035 22.8746 11.7847 22.9788 12.0057 23.1679L17.5155 27.8903H17.5152C17.9742 28.2834 18.5582 28.4997 19.1625 28.4997H33.4691C34.1421 28.4997 34.6879 29.0454 34.6879 29.7184V45.2811Z" fill="white"/>
<path d="M9.93772 8.62447H23.25C23.6123 8.62447 23.9062 8.33049 23.9062 7.96822V5.15577C23.9062 4.98166 23.8373 4.81491 23.7141 4.6917C23.5908 4.56849 23.4241 4.49951 23.25 4.49951H9.93771C9.57543 4.49951 9.28146 4.79349 9.28146 5.15576V7.96821C9.28146 8.33049 9.57544 8.62446 9.93771 8.62446L9.93772 8.62447ZM10.594 5.81201H22.594V7.31201H10.594V5.81201Z" fill="black"/>
<path d="M9.93772 14.3427H26.0623C26.4246 14.3427 26.7185 14.0488 26.7185 13.6865V10.874C26.7185 10.6999 26.6496 10.5332 26.5264 10.41C26.4031 10.2867 26.2364 10.2178 26.0623 10.2178H9.93771C9.57543 10.2178 9.28146 10.5117 9.28146 10.874V13.6865C9.28146 14.0488 9.57544 14.3427 9.93771 14.3427L9.93772 14.3427ZM10.594 11.5303H25.4063V13.0303H10.594V11.5303Z" fill="black"/>
<path d="M26.7189 19.4062V16.5938C26.7189 16.4197 26.6499 16.2529 26.5267 16.1297C26.4035 16.0065 26.2367 15.9375 26.0626 15.9375H9.93804C9.57576 15.9375 9.2818 16.2315 9.2818 16.5937V19.4062C9.2818 19.7685 9.57577 20.0624 9.93804 20.0624H26.0626C26.4249 20.0624 26.7188 19.7685 26.7188 19.4062L26.7189 19.4062ZM25.4064 18.75H10.5941V17.25H25.4064V18.75Z" fill="black"/>
</svg>
