<svg width="46" height="48" viewBox="0 0 46 48" fill="none" xmlns="http://www.w3.org/2000/svg">
<path d="M34.25 25.5C28.0468 25.5 23 30.5468 23 36.75C23 42.9532 28.0468 48 34.25 48C40.4532 48 45.5 42.9532 45.5 36.75C45.5 30.5468 40.4532 25.5 34.25 25.5ZM34.25 46.5C28.8741 46.5 24.5 42.1259 24.5 36.75C24.5 31.3741 28.8741 27 34.25 27C39.6259 27 44 31.3741 44 36.75C44 42.1259 39.6259 46.5 34.25 46.5Z" fill="black"/>
<path d="M34.25 28.5C29.7011 28.5 26 32.2012 26 36.75C26 41.2989 29.7011 45 34.25 45C36.0514 45 37.7646 44.4292 39.2014 43.3494C39.5322 43.1003 39.5988 42.6308 39.3507 42.2994C39.1033 41.9686 38.6315 41.9019 38.3007 42.15C37.1248 43.0337 35.7246 43.5 34.25 43.5C30.5278 43.5 27.5 40.4716 27.5 36.75C27.5 33.0285 30.5278 30 34.25 30C37.9722 30 41 33.0285 41 36.75C41 37.9367 40.688 39.1035 40.0977 40.125C39.8901 40.4836 40.013 40.9427 40.3706 41.1496C40.7298 41.3565 41.1889 41.2343 41.3951 40.8757C42.1183 39.6261 42.5001 38.1998 42.5001 36.75C42.5001 32.2011 38.7989 28.5 34.2501 28.5L34.25 28.5Z" fill="black"/>
<path d="M34.25 34.5H35.7942C36.2091 34.5 36.5442 34.1638 36.5442 33.75C36.5442 33.3362 36.2091 33 35.7942 33H34.25C33.0095 33 32.0001 34.0095 32.0001 35.25C32.0001 36.4905 33.0095 37.5 34.2943 37.5C34.7081 37.5 35.0442 37.8368 35.0442 38.25C35.0442 38.6632 34.7081 39 34.2943 39H32.7501C32.3352 39 32.0001 39.3362 32.0001 39.75C32.0001 40.1638 32.3352 40.5 32.7501 40.5H34.2943C35.5348 40.5 36.5442 39.4905 36.5442 38.25C36.5442 37.0095 35.5348 36 34.25 36C33.8362 36 33.5 35.6632 33.5 35.25C33.5 34.8368 33.8362 34.5 34.25 34.5Z" fill="black"/>
<path d="M19.25 28.5H4.25003C3.00948 28.5 2.00003 29.5095 2.00003 30.75V32.25C2.00003 32.5426 2.05628 32.8222 2.1584 33.0787C1.20346 33.3398 0.5 34.2144 0.5 35.25V36.75C0.5 37.7856 1.20346 38.6601 2.1584 38.9213C2.05628 39.1778 2.00003 39.4574 2.00003 39.75V41.25C2.00003 41.5426 2.05628 41.8222 2.1584 42.0787C1.20346 42.3398 0.5 43.2144 0.5 44.25V45.75C0.5 46.9905 1.50946 48 2.75 48H17.75C18.9905 48 20 46.9905 20 45.75V44.25C20 43.9574 19.9438 43.6778 19.8416 43.4213C20.7966 43.1602 21.5 42.2856 21.5 41.25V39.75C21.5 38.7144 20.7966 37.8399 19.8416 37.5787C19.9437 37.3222 20 37.0426 20 36.75V35.25C20 34.9574 19.9438 34.6778 19.8416 34.4213C20.7966 34.1602 21.5 33.2856 21.5 32.25V30.75C21.5 29.5095 20.4906 28.5 19.25 28.5ZM20 32.25C20 32.6632 19.6639 33 19.25 33H14.75C14.3352 33 14 33.3362 14 33.75C14 34.1638 14.3352 34.5 14.75 34.5H17.75C18.1639 34.5 18.5 34.8368 18.5 35.25V36.75C18.5 37.1632 18.1639 37.5 17.75 37.5H10.25C9.83519 37.5 9.50003 37.8362 9.50003 38.25C9.50003 38.6638 9.83519 39 10.25 39H19.25C19.6639 39 20 39.3368 20 39.75V41.25C20 41.6632 19.6639 42 19.25 42H14.75C14.3352 42 14 42.3362 14 42.75C14 43.1638 14.3352 43.5 14.75 43.5H17.75C18.1639 43.5 18.5 43.8368 18.5 44.25V45.75C18.5 46.1632 18.1639 46.5 17.75 46.5H2.75003C2.33619 46.5 2.00003 46.1632 2.00003 45.75V44.25C2.00003 43.8368 2.33619 43.5 2.75003 43.5H11.75C12.1649 43.5 12.5 43.1638 12.5 42.75C12.5 42.3362 12.1649 42 11.75 42H4.25003C3.83619 42 3.50003 41.6632 3.50003 41.25V39.75C3.50003 39.3368 3.83619 39 4.25003 39H7.25003C7.66487 39 8.00003 38.6638 8.00003 38.25C8.00003 37.8362 7.66487 37.5 7.25003 37.5H2.75003C2.33619 37.5 2.00003 37.1632 2.00003 36.75V35.25C2.00003 34.8368 2.33619 34.5 2.75003 34.5H11.75C12.1649 34.5 12.5 34.1638 12.5 33.75C12.5 33.3362 12.1649 33 11.75 33H4.25003C3.83619 33 3.50003 32.6632 3.50003 32.25V30.75C3.50003 30.3368 3.83619 30 4.25003 30H19.25C19.6639 30 20 30.3368 20 30.75V32.25Z" fill="black"/>
<path d="M6.77692 26.9479C6.86766 26.9841 6.9614 27.0005 7.05348 27.0005C7.35115 27.0005 7.63339 26.8214 7.75092 26.5274C9.5804 21.9179 13.2748 18.2714 17.8961 16.5005H28.0978C31.9542 17.9764 35.1913 20.7634 37.2195 24.3681C37.3574 24.6126 37.6109 24.7505 37.8734 24.7505C37.9979 24.7505 38.1238 24.7197 38.24 24.6544C38.6006 24.4512 38.7289 23.9945 38.5256 23.6329C36.5672 20.1507 33.5666 17.371 29.9786 15.6732C30.3 15.2841 30.5003 14.7929 30.5003 14.2505C30.5003 13.1278 29.6716 12.2024 28.5945 12.035L31.197 5.52873C31.3507 5.14402 31.1632 4.70742 30.7785 4.55373L27.6369 3.29682L28.2279 0.931962C28.2841 0.707631 28.2339 0.47058 28.0913 0.288437C27.949 0.106294 27.7313 0.000488281 27.5003 0.000488281H18.5003C18.2693 0.000488281 18.051 0.106963 17.9093 0.289105C17.7677 0.471248 17.7165 0.7083 17.7727 0.932631L18.3637 3.29749L15.2221 4.5544C14.8374 4.70876 14.6499 5.14469 14.8036 5.5294L17.4061 12.0356C16.329 12.2024 15.5003 13.1278 15.5003 14.2505C15.5003 14.7936 15.7012 15.2854 16.023 15.6748C11.6391 17.75 8.16068 21.4287 6.357 25.9742C6.20398 26.3596 6.39215 26.7952 6.77719 26.9482L6.77692 26.9479ZM18.7306 4.76591L19.4595 7.68251C19.56 8.08363 19.9671 8.32972 20.3685 8.22861C20.7707 8.12816 21.0151 7.72102 20.9146 7.31892L19.4601 1.50038H26.5386L24.7101 8.81824C24.609 9.22036 24.8535 9.6275 25.2562 9.72792C25.3168 9.74366 25.3785 9.75035 25.4384 9.75035C25.7745 9.75035 26.0796 9.52301 26.1653 9.1825L27.2692 4.7659L29.5245 5.66821L26.9919 12.0004H19.0071L16.4745 5.66821L18.7306 4.76591ZM17.7496 13.5002H27.4971H27.4994H27.5018H28.2494C28.6632 13.5002 28.9994 13.837 28.9994 14.2502C28.9994 14.6634 28.6632 15.0002 28.2494 15.0002H17.7494C17.3356 15.0002 16.9994 14.6634 16.9994 14.2502C16.9994 13.837 17.3356 13.5002 17.7494 13.5002H17.7496Z" fill="white"/>
</svg>
