<svg width="50" height="42" viewBox="0 0 50 42" fill="none" xmlns="http://www.w3.org/2000/svg">
<path d="M32.113 30.5115C32.406 30.6767 32.7677 30.6595 33.0435 30.4673L49.1254 19.2493C49.3719 19.0771 49.5129 18.7903 49.4989 18.49C49.4844 18.1896 49.3172 17.9173 49.0555 17.7693L19.3045 0.987265C19.0319 0.831405 18.6963 0.835314 18.4272 0.99742L0.92722 11.4274C0.66355 11.5903 0.50456 11.8798 0.50847 12.1895C0.511986 12.4993 0.677609 12.7848 0.945189 12.9415L11.8752 19.1067V22.3379L1.80419 16.6668C1.3831 16.43 0.849889 16.5793 0.613189 17C0.37608 17.4211 0.525299 17.9543 0.946389 18.1914L11.8754 24.3453V27.5879L1.80439 21.9168C1.3833 21.68 0.850089 21.8293 0.613389 22.25C0.376279 22.6711 0.525498 23.2043 0.946589 23.4414L32.1136 41.0113C32.4065 41.1766 32.7683 41.159 33.044 40.9668L49.126 29.7488C49.5225 29.4723 49.6194 28.9266 49.3428 28.5304C49.0667 28.1339 48.5209 28.0367 48.1244 28.3132L32.4934 39.2172L20.6254 32.5277V29.2867L32.1134 35.7617C32.4064 35.927 32.7681 35.9094 33.0439 35.7172L49.1259 24.4992C49.5224 24.2227 49.6193 23.6769 49.3427 23.2808C49.0665 22.8843 48.5208 22.7871 48.1243 23.0636L32.4933 33.9676L20.6253 27.2781V24.032L32.113 30.5115ZM38.415 20.3175L34.0701 23.3491C32.8838 22.8733 31.549 22.9366 30.4127 23.5217L24.626 20.2592L28.1615 18.1487L33.4529 14.9971L38.2892 17.7295C37.8751 18.5541 37.9228 19.5366 38.415 20.3175ZM32.4935 28.7171L21.1515 22.3237L22.8886 21.2893L29.9956 25.2955C30.2886 25.4603 30.6499 25.4435 30.9257 25.2513C31.3327 24.9697 31.81 24.8084 32.3042 24.7849C32.7987 24.7615 33.2893 24.8775 33.7206 25.1197C34.0135 25.2869 34.3768 25.2705 34.653 25.0771L40.2706 21.1568C40.5159 20.9857 40.6565 20.701 40.644 20.4021C40.6315 20.1033 40.4671 19.8314 40.2081 19.6818C39.9413 19.5326 39.7714 19.2556 39.7596 18.9502C39.7444 18.6521 39.885 18.3674 40.1311 18.1982C40.3776 18.0263 40.5182 17.7396 40.5038 17.4396C40.4893 17.1396 40.3218 16.8678 40.0604 16.7201L35.185 13.9658L36.9276 12.9279L46.9846 18.6103L32.4935 28.7171ZM19.3925 21.3319L14.2984 18.4546L27.0454 10.8616L30.07 9.06038L35.1704 11.935L19.3925 21.3319ZM15.9937 15.4022L12.3773 13.3616C12.8336 12.5424 12.8242 11.544 12.3527 10.7335L17.2234 7.83347C18.3332 8.28542 19.5793 8.26667 20.6754 7.7823L24.8461 10.1343L21.0141 12.4163L15.9937 15.4022ZM18.8871 2.76118L28.3117 8.07018L26.5785 9.10218L21.125 6.02758C20.8519 5.87172 20.5156 5.87563 20.2465 6.03774C19.8484 6.27797 19.3941 6.40805 18.9293 6.41508C18.4648 6.42172 18.0066 6.30531 17.6016 6.07719C17.3293 5.92485 16.9965 5.92992 16.7293 6.09086L10.4992 9.80106C10.2301 9.96122 10.0668 10.2534 10.0719 10.5671C10.077 10.8804 10.2496 11.1671 10.5242 11.3186C10.7922 11.4639 10.9602 11.7432 10.9625 12.0483C10.9699 12.3682 10.8043 12.6675 10.5293 12.8307C10.2633 12.9917 10.1023 13.2819 10.107 13.5929C10.1117 13.9038 10.2812 14.1889 10.5523 14.3417L14.264 16.437L12.5312 17.469L3.11914 12.1592L18.8871 2.76118ZM13.625 28.5742V20.0836L18.875 23.0453V31.541L13.625 28.5742Z" fill="white"/>
<path d="M32.875 19.2495C32.875 19.7327 32.4832 20.1245 32 20.1245C31.5168 20.1245 31.125 19.7327 31.125 19.2495C31.125 18.7663 31.5168 18.3745 32 18.3745C32.4832 18.3745 32.875 18.7663 32.875 19.2495Z" fill="black"/>
<path d="M18 11.375C18 11.8582 17.6082 12.25 17.125 12.25C16.6418 12.25 16.25 11.8582 16.25 11.375C16.25 10.8918 16.6418 10.5 17.125 10.5C17.6082 10.5 18 10.8918 18 11.375Z" fill="black"/>
</svg>
