<svg width="60" height="60" viewBox="0 0 60 60" fill="none" xmlns="http://www.w3.org/2000/svg">
<path d="M47.25 3.35175C46.3781 3.35175 45.5062 3.68322 44.8447 4.34483L41.7245 7.46501C40.4097 7.01233 38.8923 7.29425 37.847 8.33955L37.4984 8.6881L36.6473 7.83698C35.9174 7.10707 34.9645 6.7515 34.0093 6.7545C33.0537 6.75717 32.0955 7.11979 31.3565 7.82524L20.4811 18.2078C19.7579 18.8992 20.7952 19.9834 21.5184 19.2919L32.3921 8.91021C33.3183 8.02598 34.6964 8.00653 35.587 8.89615L36.4381 9.74727L12.9686 33.2167C12.8903 33.2951 12.8304 33.3895 12.7929 33.4936L9.04285 43.9936C8.82857 44.5906 9.40547 45.1675 10.0024 44.9532L20.5007 41.2032C20.6055 41.1654 20.7006 41.1051 20.7789 41.0261L45.6575 16.1475C46.7028 15.1022 46.9868 13.5881 46.5351 12.2746L49.6552 9.15439C50.9785 7.83087 50.9785 5.66719 49.6552 4.34367C48.9936 3.68206 48.1217 3.35059 47.2499 3.35059L47.25 3.35175ZM47.25 4.84001C47.7338 4.84001 48.2176 5.02851 48.5947 5.40552C49.3487 6.15954 49.3487 7.34078 48.5947 8.09515L45.744 10.9458C45.7146 10.914 45.6884 10.8802 45.6576 10.8491L43.1528 8.34228C43.1217 8.31114 43.0882 8.28402 43.056 8.25456L45.905 5.40558C46.282 5.02858 46.7662 4.84001 47.25 4.84001ZM40.5 8.73367C41.0729 8.73467 41.6454 8.95934 42.0908 9.40465L44.5972 11.9095C45.4879 12.8001 45.4922 14.202 44.6019 15.0927L30.3785 29.3161L24.6862 23.6238L38.9096 9.40036C39.355 8.95505 39.9271 8.73266 40.5 8.73367ZM23.6246 24.6842L29.3169 30.3765L20.2543 39.4391L14.562 33.7468L23.6246 24.6842ZM13.806 35.1183L18.8832 40.1955L10.9878 43.0123L13.806 35.1183Z" fill="white"/>
</svg>
