<svg width="26" height="25" viewBox="0 0 26 25" fill="none" xmlns="http://www.w3.org/2000/svg">
<path d="M12.9661 19.3387C11.3992 19.3366 9.88137 18.7923 8.67025 17.7981C7.45933 16.804 6.62967 15.4212 6.32245 13.8848H0.583984V20.968C0.583984 22.0362 1.00824 23.0607 1.76369 23.8158C2.51887 24.5713 3.54345 24.9955 4.61151 24.9955H21.3204C22.3885 24.9955 23.413 24.5713 24.1682 23.8158C24.9236 23.0607 25.3479 22.0361 25.3479 20.968V13.8848H19.6094C19.3022 15.4212 18.4725 16.804 17.2616 17.7981C16.0505 18.7922 14.5326 19.3366 12.9658 19.3387H12.9661Z" fill="#59A2B1"/>
<path d="M21.3213 0.235353H4.61241C3.54151 0.234322 2.51409 0.660375 1.75812 1.41895C1.00216 2.17776 0.579998 3.20669 0.584881 4.27759V11.2982H6.31582C6.71018 9.21608 8.05665 7.4387 9.95445 6.49587C11.852 5.55278 14.082 5.55278 15.9795 6.49587C17.8773 7.4387 19.2237 9.21615 19.6181 11.2982H25.3491V4.27759C25.3539 3.20669 24.9318 2.17776 24.1758 1.41895C23.4198 0.660415 22.3925 0.234364 21.3215 0.235353H21.3213ZM22.4074 4.55103C22.0481 4.55257 21.7234 4.3371 21.5852 4.00538C21.447 3.67367 21.5226 3.29118 21.7767 3.03728C22.0308 2.78314 22.4131 2.70737 22.7448 2.84552C23.0765 2.98393 23.2922 3.30869 23.2907 3.668C23.2907 3.90203 23.1976 4.12678 23.0319 4.29251C22.8664 4.45798 22.6417 4.55103 22.4074 4.55103V4.55103Z" fill="#59A2B1"/>
<path d="M12.9661 16.7523C13.8452 16.7507 14.7015 16.4734 15.4144 15.9587C16.1271 15.4442 16.6601 14.7187 16.9382 13.8849C17.2163 13.0451 17.2163 12.1381 16.9382 11.2984C16.5657 10.1793 15.7384 9.26915 14.6597 8.79209C13.581 8.31475 12.3511 8.31475 11.2724 8.79209C10.1937 9.26918 9.36639 10.1793 8.99398 11.2984C8.71587 12.1382 8.71587 13.0452 8.99398 13.8849C9.27208 14.7187 9.80511 15.4442 10.5178 15.9587C11.2307 16.4734 12.0869 16.7508 12.9661 16.7523Z" fill="#59A2B1"/>
</svg>
