<svg width="25" height="25" viewBox="0 0 25 25" fill="none" xmlns="http://www.w3.org/2000/svg">
<path d="M10.5239 12.8558L16.7455 9.52224L12.0762 14.0093L11.8564 16.062L13.128 14.8316L17.2817 18.2103L19.3737 7.01855L7.73694 11.8604L10.5239 12.8558Z" fill="#59A2B1"/>
<path d="M22.936 0.235352H2.29875C1.16382 0.235352 0.234863 1.16431 0.234863 2.29924V22.9365C0.234863 24.0714 1.16382 25.0004 2.29875 25.0004H22.936C24.0709 25.0004 24.9999 24.0714 24.9999 22.9365V2.29924C24.9999 1.16431 24.0709 0.235352 22.936 0.235352ZM18.968 20.421C18.968 20.421 18.5569 21.5112 17.4265 20.9884L13.2462 17.5886L10.5656 20.1824C10.5656 20.1824 10.356 20.3508 10.1264 20.245C10.1264 20.245 9.92886 20.2249 9.68118 19.3987C9.43502 18.5693 8.18174 14.2111 8.18174 14.2111L4.03218 12.729C4.03218 12.729 3.39521 12.4891 3.33473 11.9659C3.27254 11.4431 4.05424 11.1589 4.05424 11.1589L20.5483 4.29441C20.5483 4.29441 21.9048 3.66257 21.9048 4.70857L18.968 20.421Z" fill="#59A2B1"/>
</svg>
