<svg width="26" height="25" viewBox="0 0 26 25" fill="none" xmlns="http://www.w3.org/2000/svg">
<path fill-rule="evenodd" clip-rule="evenodd" d="M12.9437 0.235429C6.0995 0.235429 0.561035 5.77058 0.561035 12.6181C0.561035 15.2004 1.34855 17.5889 2.7474 19.6413C2.85277 19.7977 2.88128 19.9935 2.8247 20.1734L1.56709 24.3816L5.68824 22.9594V22.9596C5.86661 22.9 6.06246 22.925 6.22031 23.0272C8.15056 24.2796 10.4615 25.0006 12.9434 25.0006C19.7909 25.0006 25.326 19.4655 25.326 12.618C25.326 5.7705 19.7909 0.235352 12.9434 0.235352L12.9437 0.235429ZM7.87458 5.63337L10.1285 9.35783L9.19001 10.2866L9.19023 10.2868C8.99373 10.4848 8.95421 10.7899 9.09349 11.0316C10.5256 13.5114 12.2222 15.4406 14.5979 16.4876C14.8309 16.5913 15.1034 16.5414 15.2848 16.362L16.2811 15.3657L19.9186 17.639C19.5158 18.5455 18.9907 19.0851 18.3902 19.3996C17.6944 19.7639 16.8447 19.8327 15.875 19.6317C13.9354 19.2296 11.5927 17.7053 9.68366 15.7524C7.77458 13.7997 6.29712 11.4251 5.92055 9.49309C5.73226 8.52719 5.81539 7.6954 6.17212 7.03596C6.47918 6.46808 7.00087 5.982 7.87479 5.63324L7.87458 5.63337Z" fill="#59A2B1"/>
</svg>
