<svg width="84" height="84" viewBox="0 0 84 84" fill="none" xmlns="http://www.w3.org/2000/svg">
<path d="M23.4002 49.6289C23.2873 49.6289 23.1756 49.6511 23.0713 49.6943C22.967 49.7375 22.8722 49.8009 22.7924 49.8807C22.7125 49.9605 22.6492 50.0553 22.606 50.1596C22.5628 50.2639 22.5406 50.3757 22.5406 50.4886V64.3125C22.5355 64.4287 22.554 64.5447 22.5949 64.6535C22.6359 64.7623 22.6985 64.8617 22.7789 64.9457C22.8593 65.0297 22.9559 65.0965 23.0628 65.1422C23.1697 65.1879 23.2848 65.2114 23.4011 65.2114C23.5173 65.2114 23.6324 65.1879 23.7393 65.1422C23.8463 65.0965 23.9429 65.0297 24.0233 64.9457C24.1037 64.8617 24.1662 64.7623 24.2072 64.6535C24.2481 64.5447 24.2666 64.4287 24.2616 64.3125V50.4886C24.2616 50.3756 24.2393 50.2636 24.196 50.1592C24.1527 50.0548 24.0892 49.96 24.0092 49.8801C23.9292 49.8003 23.8342 49.737 23.7297 49.6939C23.6252 49.6508 23.5133 49.6287 23.4002 49.6289Z" fill="white"/>
<path d="M66.0073 29.9841H64.9474C65.9043 29.1079 66.5741 27.9631 66.869 26.6996C67.164 25.4362 67.0703 24.1131 66.6003 22.9039C66.1303 21.6946 65.3058 20.6555 64.2351 19.9229C63.1643 19.1903 61.8972 18.7983 60.5998 18.7983C59.3024 18.7983 58.0352 19.1903 56.9645 19.9229C55.8937 20.6555 55.0693 21.6946 54.5993 22.9039C54.1293 24.1131 54.0356 25.4362 54.3305 26.6996C54.6255 27.9631 55.2953 29.1079 56.2521 29.9841H55.5483L47.7422 22.1682C46.2837 20.708 43.7374 20.708 42.2789 22.1682C42.1825 22.2722 42.0921 22.3818 42.0082 22.4963C41.9237 22.3819 41.8328 22.2723 41.7359 22.1682C41.01 21.4457 40.0275 21.0401 39.0034 21.0401C37.9793 21.0401 36.9968 21.4457 36.271 22.1682L28.4567 29.9841H27.7545C28.7119 29.1078 29.3821 27.9627 29.6774 26.6989C29.9727 25.4351 29.8792 24.1115 29.4091 22.9017C28.9391 21.692 28.1144 20.6525 27.0433 19.9196C25.9722 19.1866 24.7047 18.7944 23.4068 18.7944C22.1089 18.7944 20.8414 19.1866 19.7703 19.9196C18.6992 20.6525 17.8745 21.692 17.4045 22.9017C16.9345 24.1115 16.8409 25.4351 17.1362 26.6989C17.4315 27.9627 18.1018 29.1078 19.0592 29.9841H18.001C16.506 29.9858 15.0727 30.5805 14.0156 31.6376C12.9585 32.6947 12.3639 34.1279 12.3621 35.6229V45.4749C12.3639 46.8832 12.8709 48.2442 13.7909 49.3106C14.7109 50.3769 15.983 51.0778 17.3759 51.286V64.3125C17.3708 64.4287 17.3893 64.5447 17.4303 64.6535C17.4712 64.7623 17.5338 64.8617 17.6142 64.9457C17.6946 65.0297 17.7912 65.0966 17.8981 65.1422C18.005 65.1879 18.1201 65.2114 18.2364 65.2114C18.3527 65.2114 18.4677 65.1879 18.5747 65.1422C18.6816 65.0966 18.7782 65.0297 18.8586 64.9457C18.939 64.8617 19.0015 64.7623 19.0425 64.6535C19.0835 64.5447 19.102 64.4287 19.0969 64.3125V50.4886C19.0969 50.4886 19.0969 50.4771 19.0969 50.4722V35.6016C19.0872 35.3799 18.9923 35.1704 18.832 35.017C18.6717 34.8635 18.4583 34.7778 18.2364 34.7778C18.0144 34.7778 17.8011 34.8635 17.6408 35.017C17.4804 35.1704 17.3856 35.3799 17.3759 35.6016V49.5338C16.4458 49.335 15.612 48.8236 15.0131 48.0848C14.4143 47.346 14.0867 46.4243 14.0848 45.4732V35.6229C14.0861 34.5838 14.4994 33.5876 15.2342 32.8529C15.969 32.1181 16.9651 31.7048 18.0042 31.7035H28.816C28.9287 31.7035 29.0403 31.6814 29.1444 31.6383C29.2486 31.5953 29.3432 31.5321 29.423 31.4525L37.4899 23.3855C37.6836 23.1653 37.9205 22.9871 38.1857 22.8621C38.451 22.7371 38.7392 22.6678 39.0323 22.6585C39.3254 22.6492 39.6174 22.7002 39.89 22.8083C40.1627 22.9163 40.4103 23.0792 40.6175 23.2867C40.8247 23.4943 40.9871 23.7421 41.0947 24.0149C41.2023 24.2878 41.2528 24.5798 41.2431 24.8729C41.2334 25.166 41.1636 25.454 41.0381 25.7191C40.9127 25.9842 40.7341 26.2207 40.5136 26.4141L27.9612 38.9649C27.8001 39.1266 27.7093 39.3453 27.7085 39.5735V50.487C27.7085 50.487 27.7085 50.487 27.7085 50.4952V64.3125C27.7035 64.4287 27.722 64.5447 27.7629 64.6535C27.8039 64.7623 27.8664 64.8617 27.9468 64.9457C28.0272 65.0297 28.1238 65.0966 28.2308 65.1422C28.3377 65.1879 28.4528 65.2114 28.569 65.2114C28.6853 65.2114 28.8004 65.1879 28.9073 65.1422C29.0142 65.0966 29.1108 65.0297 29.1912 64.9457C29.2716 64.8617 29.3342 64.7623 29.3752 64.6535C29.4161 64.5447 29.4346 64.4287 29.4295 64.3125V50.4886C29.4295 50.4886 29.4295 50.4886 29.4295 50.4804V39.9312L41.7342 27.6265C41.8307 27.5224 41.9211 27.4129 42.0049 27.2984C42.0898 27.4125 42.1808 27.522 42.2773 27.6265L54.582 39.9312V50.4804C54.582 50.4804 54.582 50.4804 54.582 50.4886V64.3125C54.5769 64.4287 54.5954 64.5447 54.6363 64.6535C54.6773 64.7623 54.7399 64.8617 54.8203 64.9457C54.9007 65.0297 54.9973 65.0966 55.1042 65.1422C55.2111 65.1879 55.3262 65.2114 55.4425 65.2114C55.5587 65.2114 55.6738 65.1879 55.7808 65.1422C55.8877 65.0966 55.9843 65.0297 56.0647 64.9457C56.1451 64.8617 56.2076 64.7623 56.2486 64.6535C56.2896 64.5447 56.3081 64.4287 56.303 64.3125V50.4985C56.303 50.4985 56.303 50.4985 56.303 50.4903V39.5752C56.3022 39.3469 56.2114 39.1282 56.0503 38.9665L43.4881 26.4141C43.0869 26.0116 42.8617 25.4664 42.8617 24.8982C42.8617 24.3299 43.0869 23.7847 43.4881 23.3822C43.8966 22.9927 44.4395 22.7753 45.004 22.7753C45.5685 22.7753 46.1114 22.9927 46.5199 23.3822L54.5869 31.4508C54.6666 31.5305 54.7613 31.5936 54.8654 31.6367C54.9696 31.6798 55.0812 31.7019 55.1939 31.7018H66.0073C67.0462 31.7031 68.0422 32.1165 68.7767 32.8513C69.5112 33.5862 69.9242 34.5823 69.9251 35.6213V45.4732C69.9235 46.4244 69.596 47.3462 68.9971 48.0851C68.3982 48.824 67.5642 49.3353 66.634 49.5338V35.6016C66.6243 35.3799 66.5294 35.1704 66.3691 35.017C66.2088 34.8635 65.9954 34.7778 65.7735 34.7778C65.5516 34.7778 65.3382 34.8635 65.1779 35.017C65.0176 35.1704 64.9227 35.3799 64.913 35.6016V50.4788C64.913 50.4788 64.913 50.4788 64.913 50.487V64.3125C64.9079 64.4287 64.9264 64.5447 64.9674 64.6535C65.0083 64.7623 65.0709 64.8617 65.1513 64.9457C65.2317 65.0297 65.3283 65.0966 65.4352 65.1422C65.5421 65.1879 65.6572 65.2114 65.7735 65.2114C65.8898 65.2114 66.0048 65.1879 66.1118 65.1422C66.2187 65.0966 66.3153 65.0297 66.3957 64.9457C66.4761 64.8617 66.5387 64.7623 66.5796 64.6535C66.6206 64.5447 66.6391 64.4287 66.634 64.3125V51.286C68.0266 51.0775 69.2982 50.3764 70.2179 49.3101C71.1376 48.2438 71.6444 46.883 71.6461 45.4749V35.6229C71.6448 34.1278 71.0503 32.6943 69.9931 31.6371C68.9359 30.5799 67.5024 29.9854 66.0073 29.9841ZM18.6818 25.2657C18.6818 24.3324 18.9585 23.4202 19.477 22.6442C19.9955 21.8683 20.7324 21.2635 21.5946 20.9064C22.4568 20.5493 23.4055 20.4558 24.3208 20.6379C25.2361 20.8199 26.0768 21.2693 26.7367 21.9292C27.3966 22.5891 27.846 23.4298 28.028 24.3451C28.2101 25.2604 28.1166 26.2091 27.7595 27.0713C27.4024 27.9335 26.7976 28.6704 26.0217 29.1889C25.2457 29.7074 24.3335 29.9841 23.4002 29.9841C22.1492 29.9828 20.9498 29.4852 20.0652 28.6007C19.1807 27.7161 18.6831 26.5167 18.6818 25.2657ZM55.883 25.2657C55.883 24.3324 56.1597 23.4202 56.6782 22.6442C57.1966 21.8683 57.9336 21.2635 58.7957 20.9064C59.6579 20.5493 60.6067 20.4558 61.5219 20.6379C62.4372 20.8199 63.278 21.2693 63.9379 21.9292C64.5977 22.5891 65.0471 23.4298 65.2292 24.3451C65.4113 25.2604 65.3178 26.2091 64.9607 27.0713C64.6036 27.9335 63.9988 28.6704 63.2228 29.1889C62.4469 29.7074 61.5346 29.9841 60.6014 29.9841C59.3504 29.9828 58.151 29.4852 57.2664 28.6007C56.3818 27.7161 55.8843 26.5167 55.883 25.2657Z" fill="white"/>
<path d="M60.6014 49.6289C60.4884 49.6287 60.3764 49.6508 60.2719 49.6939C60.1674 49.737 60.0725 49.8003 59.9925 49.8801C59.9125 49.96 59.849 50.0548 59.8057 50.1592C59.7624 50.2636 59.7401 50.3756 59.7401 50.4886V64.3125C59.735 64.4287 59.7535 64.5447 59.7945 64.6535C59.8354 64.7623 59.898 64.8617 59.9784 64.9457C60.0588 65.0297 60.1554 65.0965 60.2623 65.1422C60.3692 65.1879 60.4843 65.2114 60.6006 65.2114C60.7169 65.2114 60.8319 65.1879 60.9389 65.1422C61.0458 65.0965 61.1424 65.0297 61.2228 64.9457C61.3032 64.8617 61.3657 64.7623 61.4067 64.6535C61.4477 64.5447 61.4662 64.4287 61.4611 64.3125V50.4886C61.4611 50.2606 61.3705 50.0419 61.2093 49.8807C61.0481 49.7195 60.8294 49.6289 60.6014 49.6289Z" fill="white"/>
</svg>
