<svg width="76" height="76" viewBox="0 0 76 76" fill="none" xmlns="http://www.w3.org/2000/svg">
<path d="M65.1091 48.6621C66.342 48.0383 67.3323 47.0219 67.9237 45.7731C68.5151 44.5244 68.674 43.1143 68.3754 41.7652C68.0768 40.4161 67.3377 39.2048 66.2746 38.3222C65.2115 37.4396 63.8848 36.936 62.5038 36.8907C61.1228 36.8454 59.7661 37.2611 58.6474 38.0721C57.5288 38.8832 56.7119 40.0435 56.3256 41.3701C55.9393 42.6967 56.0055 44.1142 56.5138 45.399C57.0221 46.6839 57.9436 47.763 59.133 48.4662C57.5816 49.0998 56.2946 50.2468 55.4874 51.7155L52.7784 56.6392L48.6415 51.0861C48.5755 50.9976 48.4897 50.9257 48.391 50.8762C48.2923 50.8267 48.1834 50.801 48.073 50.8011H45.9087V47.9229C45.9066 46.467 45.4507 45.0479 44.6044 43.8632C43.7581 42.6785 42.5635 41.7871 41.187 41.313C42.1185 40.6394 42.8126 39.6879 43.1697 38.5951C43.5268 37.5024 43.5285 36.3246 43.1744 35.2309C42.8204 34.1372 42.1289 33.1838 41.1993 32.5075C40.2696 31.8313 39.1496 31.467 38 31.467C36.8504 31.467 35.7304 31.8313 34.8007 32.5075C33.8711 33.1838 33.1796 34.1372 32.8256 35.2309C32.4715 36.3246 32.4732 37.5024 32.8303 38.5951C33.1874 39.6879 33.8815 40.6394 34.813 41.313C33.4363 41.7869 32.2417 42.6783 31.3953 43.863C30.549 45.0478 30.0932 46.4669 30.0912 47.9229V50.8011H27.927C27.8166 50.801 27.7077 50.8267 27.609 50.8762C27.5103 50.9257 27.4245 50.9976 27.3585 51.0861L23.2201 56.6392L20.5126 51.7155C19.705 50.2471 18.4182 49.1002 16.867 48.4662C18.0568 47.7629 18.9787 46.6836 19.4873 45.3985C19.9959 44.1133 20.0622 42.6954 19.6759 41.3684C19.2896 40.0414 18.4725 38.8807 17.3536 38.0693C16.2346 37.258 14.8775 36.8422 13.4961 36.8875C12.1147 36.9328 10.7877 37.4366 9.72426 38.3195C8.66087 39.2024 7.92159 40.4141 7.62301 41.7636C7.32442 43.1131 7.48352 44.5236 8.07521 45.7726C8.6669 47.0217 9.65752 48.0383 10.8909 48.6621C9.75867 49.2363 8.80754 50.1127 8.14285 51.1942C7.47816 52.2757 7.12586 53.5202 7.125 54.7896V66.5874C7.125 66.7752 7.1996 66.9553 7.33238 67.0881C7.46517 67.2209 7.64526 67.2955 7.83305 67.2955C8.02083 67.2955 8.20093 67.2209 8.33371 67.0881C8.4665 66.9553 8.54109 66.7752 8.54109 66.5874V54.7896C8.54266 53.3436 9.1177 51.9572 10.1401 50.9346C11.1624 49.9119 12.5487 49.3365 13.9947 49.3345H14.0956C15.1537 49.3356 16.1922 49.6204 17.1028 50.1593C18.0135 50.6981 18.7629 51.4713 19.2731 52.3983L22.512 58.2868C22.512 58.2868 22.5195 58.3002 22.5224 58.3076L23.18 59.5025C23.2413 59.6135 23.3311 59.706 23.4402 59.7705C23.5493 59.835 23.6737 59.869 23.8005 59.8692H30.6197C31.0527 59.8692 31.4681 60.0412 31.7743 60.3474C32.0805 60.6536 32.2525 61.0689 32.2525 61.502C32.2525 61.935 32.0805 62.3503 31.7743 62.6565C31.4681 62.9628 31.0527 63.1348 30.6197 63.1348H22.4141C22.0195 63.1358 21.6309 63.0385 21.2833 62.8516C20.9358 62.6647 20.6403 62.3942 20.4235 62.0645C20.4086 62.0371 20.3918 62.0108 20.373 61.9859L16.533 55.7515C16.4857 55.6694 16.4224 55.5977 16.3469 55.5405C16.2714 55.4833 16.1851 55.4419 16.0933 55.4187C16.0015 55.3954 15.906 55.3908 15.8123 55.4051C15.7187 55.4195 15.6289 55.4525 15.5482 55.5021C15.4676 55.5518 15.3977 55.6171 15.3428 55.6943C15.2878 55.7714 15.2489 55.8588 15.2283 55.9513C15.2078 56.0437 15.206 56.1394 15.223 56.2325C15.2401 56.3257 15.2757 56.4145 15.3277 56.4937L18.951 62.3822L13.9887 69.0233C13.9286 69.0974 13.8841 69.1828 13.8578 69.2746C13.8315 69.3663 13.8241 69.4624 13.8359 69.5571C13.8477 69.6518 13.8785 69.7431 13.9265 69.8256C13.9744 69.9081 14.0386 69.98 14.1151 70.037C14.1916 70.0941 14.2788 70.1351 14.3715 70.1576C14.4642 70.1801 14.5605 70.1836 14.6547 70.168C14.7488 70.1523 14.8388 70.1178 14.9192 70.0665C14.9997 70.0152 15.0689 69.9481 15.1228 69.8694L19.8402 63.5415C20.5427 64.186 21.4607 64.5449 22.4141 64.5479H30.6241C31.4209 64.5303 32.1791 64.2015 32.7364 63.6317C33.2937 63.062 33.6058 62.2967 33.6058 61.4997C33.6058 60.7028 33.2937 59.9375 32.7364 59.3678C32.1791 58.798 31.4209 58.4692 30.6241 58.4516H24.2191L23.9697 58.0063L28.2818 52.2172H47.7182L52.0229 58.0063L51.7735 58.4516H45.3803C44.5835 58.4692 43.8253 58.798 43.268 59.3678C42.7107 59.9375 42.3987 60.7028 42.3987 61.4997C42.3987 62.2967 42.7107 63.062 43.268 63.6317C43.8253 64.2015 44.5835 64.5303 45.3803 64.5479H53.5859C54.5376 64.5442 55.4537 64.1859 56.1554 63.543L60.8727 69.8709C60.9879 70.0128 61.1535 70.1046 61.3349 70.1272C61.5163 70.1498 61.6994 70.1014 61.8459 69.9921C61.9924 69.8828 62.0909 69.7211 62.1209 69.5408C62.1509 69.3605 62.11 69.1756 62.0068 69.0248L57.049 62.3718L60.6709 56.4848C60.7196 56.4057 60.7523 56.3179 60.7671 56.2262C60.7818 56.1345 60.7784 56.0408 60.757 55.9505C60.7355 55.8601 60.6965 55.7749 60.6421 55.6996C60.5878 55.6243 60.5191 55.5605 60.44 55.5118C60.361 55.463 60.2731 55.4304 60.1814 55.4156C60.0898 55.4008 59.9961 55.4042 59.9057 55.4257C59.8154 55.4471 59.7301 55.4861 59.6549 55.5405C59.5796 55.5949 59.5158 55.6635 59.467 55.7426L55.6284 61.9874C55.6122 62.0092 55.5974 62.032 55.5839 62.0556C55.3671 62.3875 55.0708 62.6598 54.7218 62.8478C54.3728 63.0358 53.9823 63.1334 53.5859 63.1318H45.3803C44.9473 63.1318 44.532 62.9598 44.2257 62.6536C43.9195 62.3474 43.7475 61.932 43.7475 61.499C43.7475 61.0659 43.9195 60.6506 44.2257 60.3444C44.532 60.0382 44.9473 59.8662 45.3803 59.8662H52.1995C52.3263 59.8661 52.4507 59.832 52.5598 59.7675C52.6689 59.703 52.7588 59.6105 52.82 59.4995L53.4731 58.312C53.4835 58.2942 53.4939 58.2749 53.5028 58.2556L56.7269 52.3983C57.2373 51.4709 57.9872 50.6976 58.8985 50.1589C59.8097 49.6203 60.8488 49.3361 61.9073 49.336H62.0083C63.4543 49.338 64.8405 49.9134 65.8629 50.936C66.8853 51.9587 67.4603 53.3451 67.4619 54.7911V66.5889C67.4619 66.7767 67.5365 66.9568 67.6693 67.0896C67.802 67.2224 67.9821 67.297 68.1699 67.297C68.3577 67.297 68.5378 67.2224 68.6706 67.0896C68.8034 66.9568 68.878 66.7767 68.878 66.5889V54.7896C68.8768 53.5199 68.5241 52.2752 67.8589 51.1937C67.1936 50.1121 66.2419 49.2359 65.1091 48.6621ZM8.89141 43.112C8.89141 42.1611 9.17338 41.2316 9.70168 40.4409C10.23 39.6503 10.9809 39.034 11.8594 38.6701C12.7379 38.3062 13.7046 38.211 14.6373 38.3965C15.5699 38.582 16.4266 39.04 17.099 39.7124C17.7714 40.3847 18.2293 41.2414 18.4148 42.1741C18.6003 43.1067 18.5051 44.0734 18.1412 44.9519C17.7773 45.8305 17.1611 46.5814 16.3704 47.1097C15.5798 47.638 14.6502 47.9199 13.6993 47.9199C12.4246 47.9184 11.2027 47.4113 10.3013 46.51C9.40003 45.6087 8.89298 44.3867 8.89141 43.112ZM33.9773 36.9103C33.9773 36.1144 34.2134 35.3363 34.6556 34.6745C35.0979 34.0127 35.7265 33.4969 36.4619 33.1924C37.1973 32.8878 38.0065 32.8082 38.7871 32.9636C39.5677 33.119 40.2848 33.5024 40.8475 34.0654C41.4102 34.6283 41.7934 35.3455 41.9485 36.1262C42.1036 36.9069 42.0237 37.716 41.7189 38.4513C41.4141 39.1866 40.8981 39.815 40.2361 40.257C39.5741 40.699 38.796 40.9348 38 40.9345C36.9331 40.9333 35.9102 40.5089 35.1558 39.7545C34.4014 39.0001 33.977 37.9772 33.9759 36.9103H33.9773ZM31.5088 47.9229C31.5104 46.4451 32.0981 45.0283 33.1431 43.9833C34.1881 42.9384 35.6049 42.3506 37.0827 42.3491H38.9203C40.3981 42.3506 41.8149 42.9384 42.8599 43.9833C43.9048 45.0283 44.4926 46.4451 44.4941 47.9229V50.8011H42.3047V47.7967C42.3091 47.7011 42.294 47.6056 42.2605 47.516C42.2269 47.4264 42.1755 47.3445 42.1094 47.2752C42.0433 47.206 41.9638 47.151 41.8758 47.1133C41.7878 47.0757 41.6931 47.0563 41.5974 47.0563C41.5017 47.0563 41.407 47.0757 41.319 47.1133C41.231 47.151 41.1515 47.206 41.0854 47.2752C41.0193 47.3445 40.9679 47.4264 40.9343 47.516C40.9007 47.6056 40.8857 47.7011 40.8901 47.7967V50.8085H35.101V47.7967C35.1054 47.7011 35.0903 47.6056 35.0568 47.516C35.0232 47.4264 34.9718 47.3445 34.9057 47.2752C34.8396 47.206 34.7601 47.151 34.6721 47.1133C34.5841 47.0757 34.4894 47.0563 34.3937 47.0563C34.298 47.0563 34.2033 47.0757 34.1153 47.1133C34.0273 47.151 33.9478 47.206 33.8817 47.2752C33.8156 47.3445 33.7642 47.4264 33.7306 47.516C33.6971 47.6056 33.682 47.7011 33.6864 47.7967V50.8085H31.5073L31.5088 47.9229ZM57.4943 43.112C57.4943 42.1611 57.7763 41.2316 58.3046 40.4409C58.8329 39.6503 59.5838 39.034 60.4623 38.6701C61.3408 38.3062 62.3075 38.211 63.2402 38.3965C64.1728 38.582 65.0295 39.04 65.7019 39.7124C66.3743 40.3847 66.8322 41.2414 67.0177 42.1741C67.2032 43.1067 67.108 44.0734 66.7441 44.9519C66.3802 45.8305 65.764 46.5814 64.9733 47.1097C64.1827 47.638 63.2531 47.9199 62.3022 47.9199C61.0273 47.9188 59.8049 47.4119 58.9033 46.5105C58.0016 45.6092 57.4944 44.387 57.4928 43.112H57.4943Z" fill="white"/>
<path d="M24.1671 28.212C24.2375 28.2119 24.3076 28.2014 24.3749 28.1808L31.3322 26.0448C33.4022 26.8525 35.6058 27.2634 37.8278 27.256C38.3636 27.256 38.8936 27.2323 39.4131 27.1878C41.1186 29.3327 44.1824 30.6508 47.5282 30.6508C48.7475 30.6549 49.9605 30.4753 51.1263 30.1179L55.1772 31.629C55.3006 31.6748 55.4344 31.6854 55.5634 31.6594C55.6925 31.6334 55.8118 31.5719 55.9079 31.4818C56.0039 31.3918 56.073 31.2767 56.1073 31.1496C56.1415 31.0224 56.1397 30.8883 56.1019 30.7621L55.1846 27.7117C56.3557 26.4946 56.997 25.0087 56.997 23.4857C56.997 20.7782 54.9857 18.3127 51.8329 17.1029C51.8447 16.9218 51.8507 16.7392 51.8507 16.5552C51.8507 10.6518 45.5599 5.84839 37.8278 5.84839C30.0957 5.84839 23.8064 10.6518 23.8064 16.5552C23.8064 18.807 24.697 20.9385 26.3833 22.751L23.5719 27.121C23.5032 27.2278 23.4645 27.3511 23.4598 27.4781C23.4552 27.605 23.4848 27.7308 23.5455 27.8424C23.6062 27.954 23.6958 28.0471 23.8049 28.1122C23.914 28.1772 24.0386 28.2117 24.1656 28.212H24.1671ZM55.5824 23.4857C55.5824 24.7608 55.002 25.9721 53.9036 26.9874C53.806 27.0771 53.7358 27.1926 53.7009 27.3204C53.666 27.4483 53.6678 27.5834 53.7061 27.7103L54.3355 29.8047L51.3905 28.7063C51.239 28.6485 51.0721 28.6454 50.9185 28.6974C49.8252 29.0609 48.6803 29.2449 47.5282 29.2421C44.9736 29.2421 42.6297 28.3901 41.1187 26.9651C46.4416 25.9839 50.589 22.6797 51.6087 18.5413C54.0446 19.564 55.5824 21.4521 55.5824 23.4857ZM27.878 23.0404C27.9668 22.9032 28.0053 22.7394 27.9869 22.5771C27.9685 22.4147 27.8943 22.2637 27.7771 22.1498C26.1042 20.517 25.221 18.5873 25.221 16.5522C25.221 11.4282 30.8765 7.26151 37.8278 7.26151C44.7791 7.26151 50.4361 11.4296 50.4361 16.5507C50.4361 21.6718 44.7806 25.8414 37.8278 25.8414C35.7057 25.8507 33.6026 25.4427 31.6379 24.6406C31.4857 24.5772 31.3162 24.5688 31.1585 24.6168L25.8148 26.26L27.878 23.0404Z" fill="#59A2B1"/>
<path d="M30.8987 14.734H44.7583C44.9461 14.734 45.1262 14.6594 45.259 14.5266C45.3918 14.3938 45.4664 14.2137 45.4664 14.0259C45.4664 13.8381 45.3918 13.658 45.259 13.5253C45.1262 13.3925 44.9461 13.3179 44.7583 13.3179H30.8987C30.7109 13.3179 30.5308 13.3925 30.3981 13.5253C30.2653 13.658 30.1907 13.8381 30.1907 14.0259C30.1907 14.2137 30.2653 14.3938 30.3981 14.5266C30.5308 14.6594 30.7109 14.734 30.8987 14.734Z" fill="#59A2B1"/>
<path d="M45.4664 19.0742C45.466 18.8867 45.3913 18.707 45.2585 18.5745C45.1258 18.4421 44.9459 18.3677 44.7584 18.3677H30.8988C30.8032 18.3633 30.7077 18.3784 30.618 18.4119C30.5284 18.4455 30.4465 18.4969 30.3773 18.563C30.3081 18.6291 30.253 18.7086 30.2154 18.7966C30.1777 18.8846 30.1583 18.9793 30.1583 19.075C30.1583 19.1707 30.1777 19.2654 30.2154 19.3534C30.253 19.4414 30.3081 19.5209 30.3773 19.587C30.4465 19.6531 30.5284 19.7045 30.618 19.7381C30.7077 19.7716 30.8032 19.7867 30.8988 19.7823H44.7584C44.8514 19.7823 44.9434 19.764 45.0294 19.7284C45.1153 19.6928 45.1933 19.6407 45.2591 19.5749C45.3248 19.5092 45.377 19.4311 45.4125 19.3452C45.4481 19.2593 45.4664 19.1672 45.4664 19.0742Z" fill="#59A2B1"/>
</svg>
