<svg width="82" height="82" viewBox="0 0 82 82" fill="none" xmlns="http://www.w3.org/2000/svg">
<path d="M32.7584 62.1692C32.6321 62.1697 32.5071 62.1451 32.3905 62.0967C32.2739 62.0483 32.1681 61.9771 32.0793 61.8873L20.1125 49.9205C19.9325 49.7403 19.8314 49.4961 19.8314 49.2414C19.8314 48.9868 19.9325 48.7425 20.1125 48.5623L49.5812 19.0936C49.6704 19.0043 49.7764 18.9334 49.8931 18.885C50.0097 18.8367 50.1348 18.8118 50.2611 18.8118C50.3873 18.8118 50.5124 18.8367 50.629 18.885C50.7457 18.9334 50.8517 19.0043 50.9409 19.0936L62.9078 31.0605C62.9971 31.1497 63.068 31.2557 63.1164 31.3724C63.1647 31.489 63.1896 31.6141 63.1896 31.7403C63.1896 31.8666 63.1647 31.9917 63.1164 32.1083C63.068 32.225 62.9971 32.331 62.9078 32.4202L33.439 61.889C33.3496 61.9781 33.2434 62.0488 33.1266 62.0968C33.0098 62.1449 32.8847 62.1695 32.7584 62.1692ZM22.1496 49.2414L32.7584 59.8502L60.8674 31.7395L50.2603 21.1404L22.1496 49.2414Z" fill="white"/>
<path d="M62.2271 32.7006C62.1008 32.7009 61.9757 32.6763 61.8589 32.6282C61.7421 32.5801 61.6359 32.5095 61.5464 32.4203L49.5796 20.4535C49.4902 20.3642 49.4193 20.2582 49.371 20.1416C49.3226 20.0249 49.2977 19.8999 49.2977 19.7736C49.2977 19.6473 49.3226 19.5223 49.371 19.4056C49.4193 19.289 49.4902 19.183 49.5796 19.0937L51.9339 16.7394C53.3192 15.3571 55.1963 14.5808 57.1533 14.5808C59.1104 14.5808 60.9875 15.3571 62.3728 16.7394L65.2557 19.6222C66.6399 21.0066 67.4176 22.8841 67.4176 24.8417C67.4176 26.7994 66.6399 28.6769 65.2557 30.0612L62.9014 32.4155C62.723 32.5958 62.4807 32.6983 62.2271 32.7006ZM51.6183 19.7728L62.2271 30.3815L63.9023 28.7063C64.4102 28.1993 64.8131 27.5972 65.0881 26.9344C65.363 26.2715 65.5045 25.5609 65.5045 24.8433C65.5045 24.1257 65.363 23.4152 65.0881 22.7523C64.8131 22.0895 64.4102 21.4873 63.9023 20.9804L61.0195 18.0976C59.9948 17.0753 58.6064 16.5011 57.159 16.5011C55.7115 16.5011 54.3231 17.0753 53.2984 18.0976L51.6183 19.7728Z" fill="white"/>
<path d="M17.8398 67.4577C17.4039 67.4662 16.9707 67.3875 16.5656 67.2264C16.1605 67.0652 15.7917 66.8248 15.4807 66.5192C14.5198 65.5583 14.2828 64.1041 14.8401 62.6146L19.8978 48.9084C19.9538 48.7573 20.0468 48.6227 20.1684 48.5169C20.29 48.4112 20.4362 48.3377 20.5936 48.3032C20.751 48.2688 20.9146 48.2745 21.0692 48.3198C21.2239 48.3651 21.3646 48.4486 21.4786 48.5625L33.4454 60.5294C33.5594 60.6433 33.6429 60.7841 33.6882 60.9387C33.7335 61.0934 33.7392 61.2569 33.7047 61.4143C33.6703 61.5718 33.5968 61.718 33.491 61.8396C33.3853 61.9612 33.2506 62.0542 33.0995 62.1101L19.3789 67.1679C18.8869 67.3542 18.3659 67.4523 17.8398 67.4577ZM18.7191 65.3661L19.0522 66.2662L18.7191 65.3661L31.0175 60.8273L21.1727 50.9825L16.6338 63.2809C16.352 64.0464 16.4288 64.7495 16.8388 65.1611C17.2488 65.5727 17.9535 65.648 18.7191 65.3661Z" fill="white"/>
</svg>
