<svg width="65" height="65" viewBox="0 0 65 65" fill="none" xmlns="http://www.w3.org/2000/svg">
<path d="M37.6898 3.46963C37.5942 3.46558 37.4987 3.48092 37.4092 3.51473C37.3196 3.54854 37.2378 3.60011 37.1687 3.66635C37.0996 3.73259 37.0447 3.81212 37.0071 3.90017C36.9695 3.98821 36.9502 4.08294 36.9502 4.17866C36.9502 4.27438 36.9695 4.36912 37.0071 4.45716C37.0447 4.5452 37.0996 4.62473 37.1687 4.69097C37.2378 4.75721 37.3196 4.80879 37.4092 4.84259C37.4987 4.8764 37.5942 4.89174 37.6898 4.8877H37.9057C38.0013 4.89174 38.0968 4.8764 38.1863 4.84259C38.2759 4.80879 38.3577 4.75721 38.4268 4.69097C38.4959 4.62473 38.5508 4.5452 38.5884 4.45716C38.626 4.36912 38.6453 4.27438 38.6453 4.17866C38.6453 4.08294 38.626 3.98821 38.5884 3.90017C38.5508 3.81212 38.4959 3.73259 38.4268 3.66635C38.3577 3.60011 38.2759 3.54854 38.1863 3.51473C38.0968 3.48092 38.0013 3.46558 37.9057 3.46963H37.6898Z" fill="white"/>
<path d="M42.9102 3.46963H41.793C41.6973 3.46558 41.6019 3.48092 41.5123 3.51473C41.4228 3.54854 41.341 3.60011 41.2719 3.66635C41.2028 3.73259 41.1478 3.81212 41.1102 3.90017C41.0727 3.98821 41.0533 4.08294 41.0533 4.17866C41.0533 4.27438 41.0727 4.36912 41.1102 4.45716C41.1478 4.5452 41.2028 4.62473 41.2719 4.69097C41.341 4.75721 41.4228 4.80879 41.5123 4.84259C41.6019 4.8764 41.6973 4.89174 41.793 4.8877H42.1967V60.1123H23.6209C23.438 60.12 23.2652 60.1981 23.1386 60.3302C23.0119 60.4624 22.9412 60.6383 22.9412 60.8213C22.9412 61.0044 23.0119 61.1803 23.1386 61.3124C23.2652 61.4445 23.438 61.5226 23.6209 61.5304H42.9102C43.098 61.5304 43.2782 61.4557 43.4111 61.3229C43.5439 61.19 43.6185 61.0098 43.6185 60.822V4.17803C43.6185 3.99015 43.5439 3.80996 43.4111 3.67711C43.2782 3.54426 43.098 3.46963 42.9102 3.46963Z" fill="white"/>
<path d="M18.0096 60.1122H17.8623C17.7667 60.1082 17.6712 60.1235 17.5816 60.1573C17.4921 60.1911 17.4103 60.2427 17.3412 60.3089C17.2721 60.3752 17.2171 60.4547 17.1795 60.5427C17.142 60.6308 17.1226 60.7255 17.1226 60.8212C17.1226 60.917 17.142 61.0117 17.1795 61.0997C17.2171 61.1878 17.2721 61.2673 17.3412 61.3335C17.4103 61.3998 17.4921 61.4514 17.5816 61.4852C17.6712 61.519 17.7667 61.5343 17.8623 61.5303H18.0096C18.1052 61.5343 18.2007 61.519 18.2902 61.4852C18.3798 61.4514 18.4616 61.3998 18.5307 61.3335C18.5998 61.2673 18.6547 61.1878 18.6923 61.0997C18.7299 61.0117 18.7492 60.917 18.7492 60.8212C18.7492 60.7255 18.7299 60.6308 18.6923 60.5427C18.6547 60.4547 18.5998 60.3752 18.5307 60.3089C18.4616 60.2427 18.3798 60.1911 18.2902 60.1573C18.2007 60.1235 18.1052 60.1082 18.0096 60.1122Z" fill="white"/>
<path d="M12.0961 60.1123H6.4289V4.8877H33.2046C33.3002 4.89174 33.3957 4.8764 33.4852 4.84259C33.5748 4.80879 33.6566 4.75721 33.7257 4.69097C33.7948 4.62473 33.8498 4.5452 33.8873 4.45716C33.9249 4.36912 33.9443 4.27438 33.9443 4.17866C33.9443 4.08294 33.9249 3.98821 33.8873 3.90017C33.8498 3.81212 33.7948 3.73259 33.7257 3.66635C33.6566 3.60011 33.5748 3.54854 33.4852 3.51473C33.3957 3.48092 33.3002 3.46558 33.2046 3.46963H5.71923C5.53135 3.46963 5.35117 3.54426 5.21832 3.67711C5.08547 3.80996 5.01083 3.99015 5.01083 4.17803V60.822C5.01083 61.0098 5.08547 61.19 5.21832 61.3229C5.35117 61.4557 5.53135 61.5304 5.71923 61.5304H12.0961C12.1917 61.5344 12.2872 61.5191 12.3767 61.4853C12.4663 61.4515 12.5481 61.3999 12.6172 61.3336C12.6863 61.2674 12.7413 61.1879 12.7788 61.0998C12.8164 61.0118 12.8358 60.917 12.8358 60.8213C12.8358 60.7256 12.8164 60.6309 12.7788 60.5428C12.7413 60.4548 12.6863 60.3753 12.6172 60.309C12.5481 60.2428 12.4663 60.1912 12.3767 60.1574C12.2872 60.1236 12.1917 60.1082 12.0961 60.1123Z" fill="white"/>
<path d="M59.8749 9.36406C59.8108 9.26627 59.7237 9.18572 59.6212 9.12949C59.5187 9.07326 59.404 9.04308 59.2871 9.0416H57.3295V4.17803C57.3292 3.99025 57.2544 3.81026 57.1216 3.67748C56.9889 3.54471 56.8089 3.46996 56.6211 3.46963H54.8653C54.6825 3.47737 54.5097 3.55545 54.383 3.68758C54.2564 3.8197 54.1857 3.99564 54.1857 4.17866C54.1857 4.36168 54.2564 4.53763 54.383 4.66975C54.5097 4.80187 54.6825 4.87996 54.8653 4.8877H55.9102V9.0416H52.7579V4.17803C52.7579 3.99037 52.6834 3.81038 52.5509 3.67756C52.4183 3.54475 52.2384 3.46997 52.0508 3.46963H50.295C50.1994 3.46558 50.1039 3.48092 50.0144 3.51473C49.9248 3.54854 49.843 3.60011 49.7739 3.66635C49.7048 3.73259 49.6498 3.81212 49.6123 3.90017C49.5747 3.98821 49.5553 4.08294 49.5553 4.17866C49.5553 4.27438 49.5747 4.36912 49.6123 4.45716C49.6498 4.5452 49.7048 4.62473 49.7739 4.69097C49.843 4.75721 49.9248 4.80879 50.0144 4.84259C50.1039 4.8764 50.1994 4.89174 50.295 4.8877H51.3398V9.0416H50.295C50.1994 9.03755 50.1039 9.05289 50.0144 9.0867C49.9248 9.12051 49.843 9.17208 49.7739 9.23832C49.7048 9.30456 49.6498 9.38409 49.6123 9.47214C49.5747 9.56018 49.5553 9.65491 49.5553 9.75063C49.5553 9.84636 49.5747 9.94109 49.6123 10.0291C49.6498 10.1172 49.7048 10.1967 49.7739 10.2629C49.843 10.3292 49.9248 10.3808 50.0144 10.4146C50.1039 10.4484 50.1994 10.4637 50.295 10.4597H58.1915L56.4142 14.4841C56.3746 14.5743 56.3542 14.6718 56.3542 14.7704C56.3542 14.8689 56.3746 14.9664 56.4142 15.0566L58.1915 19.0811H48.1863V4.17803C48.1863 3.99059 48.112 3.81079 47.9797 3.67801C47.8474 3.54523 47.6679 3.4703 47.4805 3.46963H45.7234C45.6278 3.46558 45.5323 3.48092 45.4428 3.51473C45.3532 3.54854 45.2714 3.60011 45.2023 3.66635C45.1332 3.73259 45.0783 3.81212 45.0407 3.90017C45.0031 3.98821 44.9838 4.08294 44.9838 4.17866C44.9838 4.27438 45.0031 4.36912 45.0407 4.45716C45.0783 4.5452 45.1332 4.62473 45.2023 4.69097C45.2714 4.75721 45.3532 4.80879 45.4428 4.84259C45.5323 4.8764 45.6278 4.89174 45.7234 4.8877H46.7683V60.1123H45.7234C45.6278 60.1082 45.5323 60.1236 45.4428 60.1574C45.3532 60.1912 45.2714 60.2428 45.2023 60.309C45.1332 60.3753 45.0783 60.4548 45.0407 60.5428C45.0031 60.6309 44.9838 60.7256 44.9838 60.8213C44.9838 60.917 45.0031 61.0118 45.0407 61.0998C45.0783 61.1879 45.1332 61.2674 45.2023 61.3336C45.2714 61.3999 45.3532 61.4515 45.4428 61.4853C45.5323 61.5191 45.6278 61.5344 45.7234 61.5304H47.4805C47.5736 61.5305 47.6659 61.5123 47.752 61.4768C47.838 61.4413 47.9163 61.3891 47.9822 61.3233C48.0481 61.2575 48.1004 61.1794 48.1361 61.0933C48.1718 61.0073 48.1901 60.9151 48.1901 60.822V20.4991H51.3398V60.1085H50.295C50.1994 60.1044 50.1039 60.1198 50.0144 60.1536C49.9248 60.1874 49.843 60.239 49.7739 60.3052C49.7048 60.3714 49.6498 60.451 49.6123 60.539C49.5747 60.6271 49.5553 60.7218 49.5553 60.8175C49.5553 60.9132 49.5747 61.008 49.6123 61.096C49.6498 61.1841 49.7048 61.2636 49.7739 61.3298C49.843 61.3961 49.9248 61.4476 50.0144 61.4815C50.1039 61.5153 50.1994 61.5306 50.295 61.5266H52.0508C52.1439 61.5267 52.2362 61.5085 52.3223 61.473C52.4084 61.4375 52.4866 61.3853 52.5525 61.3195C52.6184 61.2537 52.6707 61.1756 52.7064 61.0895C52.7421 61.0035 52.7604 60.9113 52.7604 60.8182V20.4991H55.9102V60.1085H54.8653C54.6825 60.1162 54.5097 60.1943 54.383 60.3264C54.2564 60.4586 54.1857 60.6345 54.1857 60.8175C54.1857 61.0005 54.2564 61.1765 54.383 61.3086C54.5097 61.4407 54.6825 61.5188 54.8653 61.5266H56.6211C56.8091 61.5266 56.9894 61.452 57.1225 61.3191C57.2555 61.1863 57.3304 61.0062 57.3308 60.8182V20.4991H59.2871C59.405 20.499 59.5211 20.4694 59.6247 20.4132C59.7283 20.3569 59.8163 20.2758 59.8807 20.177C59.9451 20.0782 59.9839 19.9649 59.9935 19.8474C60.0031 19.7298 59.9833 19.6118 59.9358 19.5038L57.8398 14.771L59.9295 10.0369C59.9771 9.92907 59.997 9.81106 59.9875 9.69357C59.978 9.57607 59.9393 9.46282 59.8749 9.36406Z" fill="#59A2B1"/>
<path d="M33.9419 16.6715C33.9419 16.4936 33.8713 16.323 33.7455 16.1972C33.6197 16.0714 33.4491 16.0007 33.2712 16.0007H15.7015C15.6109 15.9966 15.5204 16.0108 15.4355 16.0426C15.3506 16.0744 15.273 16.1231 15.2075 16.1857C15.1419 16.2484 15.0897 16.3236 15.054 16.407C15.0184 16.4904 15 16.5801 15 16.6708C15 16.7615 15.0184 16.8512 15.054 16.9346C15.0897 17.0179 15.1419 17.0932 15.2075 17.1558C15.273 17.2185 15.3506 17.2672 15.4355 17.299C15.5204 17.3308 15.6109 17.345 15.7015 17.3409H33.2712C33.4488 17.3409 33.6192 17.2704 33.745 17.1449C33.8707 17.0194 33.9416 16.8491 33.9419 16.6715Z" fill="#59A2B1"/>
<path d="M33.9419 26.6715C33.9419 26.4936 33.8713 26.323 33.7455 26.1972C33.6197 26.0714 33.4491 26.0007 33.2712 26.0007H15.7015C15.6109 25.9966 15.5204 26.0108 15.4355 26.0426C15.3506 26.0744 15.273 26.1231 15.2075 26.1857C15.1419 26.2484 15.0897 26.3236 15.054 26.407C15.0184 26.4904 15 26.5801 15 26.6708C15 26.7615 15.0184 26.8512 15.054 26.9346C15.0897 27.0179 15.1419 27.0932 15.2075 27.1558C15.273 27.2185 15.3506 27.2672 15.4355 27.299C15.5204 27.3308 15.6109 27.345 15.7015 27.3409H33.2712C33.4488 27.3409 33.6192 27.2704 33.745 27.1449C33.8707 27.0194 33.9416 26.8491 33.9419 26.6715Z" fill="#59A2B1"/>
<path d="M33.9419 36.6715C33.9419 36.4936 33.8713 36.323 33.7455 36.1972C33.6197 36.0714 33.4491 36.0007 33.2712 36.0007H15.7015C15.6109 35.9966 15.5204 36.0108 15.4355 36.0426C15.3506 36.0744 15.273 36.1231 15.2075 36.1857C15.1419 36.2484 15.0897 36.3236 15.054 36.407C15.0184 36.4904 15 36.5801 15 36.6708C15 36.7615 15.0184 36.8512 15.054 36.9346C15.0897 37.0179 15.1419 37.0932 15.2075 37.1558C15.273 37.2185 15.3506 37.2672 15.4355 37.299C15.5204 37.3308 15.6109 37.345 15.7015 37.3409H33.2712C33.4488 37.3409 33.6192 37.2704 33.745 37.1449C33.8707 37.0194 33.9416 36.8491 33.9419 36.6715Z" fill="#59A2B1"/>
</svg>
