<svg width="72" height="72" viewBox="0 0 72 72" fill="none" xmlns="http://www.w3.org/2000/svg">
<path d="M28.1053 16.3533H45.675C45.8529 16.3533 46.0235 16.2826 46.1493 16.1568C46.2751 16.031 46.3458 15.8604 46.3458 15.6825C46.3458 15.5046 46.2751 15.334 46.1493 15.2082C46.0235 15.0824 45.8529 15.0117 45.675 15.0117H28.1053C27.9274 15.0117 27.7568 15.0824 27.631 15.2082C27.5052 15.334 27.4345 15.5046 27.4345 15.6825C27.4345 15.8604 27.5052 16.031 27.631 16.1568C27.7568 16.2826 27.9274 16.3533 28.1053 16.3533Z" fill="#59A2B1"/>
<path d="M46.3458 22.078C46.3458 21.9001 46.2751 21.7295 46.1493 21.6037C46.0235 21.4779 45.8529 21.4072 45.675 21.4072H28.1053C28.0147 21.403 27.9243 21.4173 27.8394 21.4491C27.7544 21.4809 27.6769 21.5296 27.6113 21.5922C27.5457 21.6549 27.4935 21.7301 27.4579 21.8135C27.4222 21.8969 27.4038 21.9866 27.4038 22.0773C27.4038 22.168 27.4222 22.2577 27.4579 22.3411C27.4935 22.4244 27.5457 22.4997 27.6113 22.5623C27.6769 22.625 27.7544 22.6736 27.8394 22.7054C27.9243 22.7373 28.0147 22.7515 28.1053 22.7474H45.675C45.8527 22.7474 46.0231 22.6769 46.1488 22.5514C46.2746 22.4259 46.3454 22.2556 46.3458 22.078Z" fill="#59A2B1"/>
<path d="M45.9309 41.9302L50.3888 44.8749C50.4977 44.9459 50.625 44.9837 50.7551 44.9837C50.8852 44.9837 51.0124 44.9459 51.1214 44.8749C51.2308 44.804 51.3172 44.7029 51.3701 44.5838C51.423 44.4647 51.4402 44.3328 51.4195 44.2041L50.6925 39.7491C52.5431 38.2922 53.557 36.4022 53.557 34.3871C53.557 31.9318 52.0411 29.6733 49.4494 28.1897C52.5361 25.7836 54.4402 22.4972 54.4402 18.8789C54.4402 11.52 46.5652 5.53223 36.8902 5.53223C27.2152 5.53223 19.3402 11.5313 19.3402 18.8832C19.3402 21.7322 20.4877 24.4294 22.6659 26.7118L19.0097 32.4071C18.9446 32.5083 18.908 32.6251 18.9036 32.7454C18.8992 32.8656 18.9272 32.9848 18.9847 33.0905C19.0422 33.1962 19.1271 33.2845 19.2305 33.3461C19.3338 33.4077 19.4519 33.4404 19.5722 33.4407C19.6389 33.4405 19.7052 33.4306 19.7691 33.4111L28.665 30.6788C29.9341 31.1865 31.2495 31.5699 32.5927 31.8235C32.2111 32.6258 32.0127 33.5029 32.0119 34.3913C32.0119 38.7352 36.8452 42.2663 42.7852 42.2663C43.8428 42.2688 44.8977 42.1561 45.9309 41.9302ZM28.4934 29.3274L21.1177 31.5914L24.0778 26.9846C24.1617 26.8544 24.198 26.6992 24.1803 26.5453C24.1626 26.3915 24.0921 26.2485 23.9808 26.1408C21.8166 24.0314 20.6733 21.5255 20.6733 18.8818C20.6733 12.2625 27.945 6.8766 36.8831 6.8766C45.8213 6.8766 53.1 12.2639 53.1 18.8832C53.1 22.3749 51.075 25.5235 47.8505 27.72C47.8203 27.7368 47.7916 27.7561 47.7647 27.7777C44.8875 29.7099 41.0709 30.8883 36.8902 30.8883C34.1691 30.8985 31.4727 30.3729 28.9547 29.3414C28.8095 29.2842 28.6489 29.2792 28.5005 29.3274H28.4934ZM33.345 34.3899C33.3484 33.5658 33.5665 32.7569 33.9778 32.0429C34.9414 32.165 35.9118 32.2265 36.8831 32.2271C41.2017 32.2271 45.1589 31.0346 48.2203 29.0602C50.7248 30.2935 52.2098 32.2664 52.2098 34.3899C52.2098 36.0774 51.2705 37.6875 49.5661 38.9166C49.4651 38.9893 49.3865 39.0888 49.339 39.2039C49.2916 39.3189 49.2772 39.4449 49.2975 39.5677L49.8431 42.9104L46.4217 40.6505C46.3446 40.5999 46.2578 40.5656 46.1668 40.5499C46.0759 40.5342 45.9827 40.5373 45.893 40.5591C44.8727 40.8062 43.8265 40.9299 42.7767 40.9275C37.5834 40.9289 33.352 37.9969 33.352 34.3913L33.345 34.3899Z" fill="#59A2B1"/>
<path d="M28.4836 61.1114H22.4212L18.27 50.9864C17.9484 50.1953 17.4685 49.4783 16.8598 48.8793C16.2512 48.2804 15.5266 47.812 14.7305 47.5031C15.8223 46.8139 16.6577 45.7854 17.1084 44.5755C17.5592 43.3656 17.6004 42.0412 17.2256 40.8057C16.8509 39.5701 16.081 38.4917 15.0341 37.736C13.9872 36.9804 12.7212 36.5892 11.4305 36.6226C10.1398 36.656 8.89575 37.1121 7.88934 37.9209C6.88293 38.7297 6.16982 39.8465 5.85948 41.0998C5.54915 42.353 5.65875 43.6735 6.17147 44.8585C6.68419 46.0435 7.57167 47.0274 8.69765 47.6592C7.79119 48.1153 7.02904 48.814 6.496 49.6775C5.96297 50.541 5.67995 51.5354 5.67844 52.5501V65.5312C5.67844 65.7091 5.74911 65.8798 5.8749 66.0056C6.0007 66.1313 6.17132 66.202 6.34922 66.202C6.52712 66.202 6.69774 66.1313 6.82353 66.0056C6.94933 65.8798 7.02 65.7091 7.02 65.5312V52.5459C7.02111 51.4504 7.45672 50.4 8.23125 49.6252C9.00579 48.8504 10.056 48.4144 11.1516 48.413H12.4425C13.4266 48.4106 14.389 48.7022 15.2063 49.2504C16.0236 49.7986 16.6585 50.5784 17.0297 51.4898L21.3511 62.0367C21.4007 62.1608 21.4862 62.2673 21.5967 62.3424C21.7072 62.4176 21.8376 62.458 21.9712 62.4586H28.4836C28.8379 62.4586 29.1777 62.5993 29.4282 62.8499C29.6788 63.1004 29.8195 63.4402 29.8195 63.7945C29.8195 64.1488 29.6788 64.4886 29.4282 64.7392C29.1777 64.9897 28.8379 65.1305 28.4836 65.1305H19.7508C19.3848 65.1312 19.027 65.0224 18.7232 64.8182C18.4195 64.6139 18.1838 64.3236 18.0464 63.9844L14.8331 56.1501C14.8026 56.0648 14.7551 55.9865 14.6935 55.92C14.6319 55.8535 14.5575 55.8002 14.4747 55.7632C14.3919 55.7263 14.3025 55.7065 14.2119 55.7051C14.1212 55.7037 14.0313 55.7207 13.9474 55.755C13.8635 55.7894 13.7874 55.8404 13.7238 55.9049C13.6601 55.9695 13.6102 56.0462 13.5771 56.1306C13.544 56.215 13.5283 56.3052 13.531 56.3958C13.5337 56.4864 13.5547 56.5756 13.5928 56.6578L16.8061 64.4934C17.0444 65.0785 17.452 65.5792 17.9766 65.9312C18.5012 66.2832 19.119 66.4705 19.7508 66.4692H28.4836C29.1933 66.4692 29.874 66.1873 30.3759 65.6854C30.8777 65.1835 31.1597 64.5029 31.1597 63.7931C31.1597 63.0834 30.8777 62.4027 30.3759 61.9008C29.874 61.399 29.1933 61.117 28.4836 61.117V61.1114ZM7.03125 42.518C7.03097 41.617 7.29787 40.7363 7.79819 39.987C8.29852 39.2378 9.00979 38.6538 9.84205 38.3088C10.6743 37.9639 11.5902 37.8735 12.4738 38.0491C13.3575 38.2247 14.1692 38.6583 14.8064 39.2953C15.4435 39.9322 15.8774 40.7438 16.0533 41.6274C16.2292 42.511 16.1391 43.4269 15.7944 44.2593C15.4496 45.0917 14.8658 45.8031 14.1168 46.3037C13.3677 46.8042 12.487 47.0714 11.5861 47.0714C10.3788 47.0699 9.22131 46.5897 8.36747 45.7362C7.51364 44.8826 7.03311 43.7253 7.03125 42.518Z" fill="white"/>
<path d="M63.3023 47.6552C64.4279 47.0234 65.315 46.0397 65.8274 44.855C66.3399 43.6703 66.4493 42.3502 66.139 41.0973C65.8287 39.8444 65.1157 38.728 64.1096 37.9195C63.1034 37.1109 61.8597 36.655 60.5694 36.6216C59.2791 36.5882 58.0135 36.9792 56.9668 37.7347C55.9202 38.4901 55.1505 39.5681 54.7758 40.8033C54.4011 42.0385 54.4421 43.3625 54.8926 44.5721C55.3431 45.7816 56.1781 46.8099 57.2695 47.4991C56.4734 47.808 55.7488 48.2763 55.1401 48.8753C54.5315 49.4743 54.0516 50.1913 53.73 50.9824L49.5787 61.1074H43.5164C42.8067 61.1074 42.126 61.3893 41.6241 61.8912C41.1222 62.393 40.8403 63.0737 40.8403 63.7835C40.8403 64.4932 41.1222 65.1739 41.6241 65.6757C42.126 66.1776 42.8067 66.4596 43.5164 66.4596H52.2492C52.881 66.4609 53.4988 66.2735 54.0234 65.9215C54.548 65.5695 54.9556 65.0689 55.1939 64.4838L58.4072 56.6482C58.4453 56.5659 58.4663 56.4768 58.469 56.3862C58.4717 56.2956 58.456 56.2054 58.4229 56.121C58.3898 56.0366 58.3399 55.9598 58.2762 55.8953C58.2126 55.8307 58.1365 55.7797 58.0526 55.7454C57.9687 55.711 57.8787 55.6941 57.7881 55.6955C57.6975 55.6969 57.6081 55.7167 57.5253 55.7536C57.4425 55.7905 57.368 55.8438 57.3064 55.9103C57.2448 55.9768 57.1974 56.0551 57.1669 56.1405L53.9536 63.9846C53.8157 64.3232 53.5798 64.613 53.2762 64.8167C52.9725 65.0204 52.6149 65.1288 52.2492 65.1278H43.5164C43.1621 65.1278 42.8223 64.9871 42.5717 64.7365C42.3212 64.486 42.1805 64.1462 42.1805 63.7919C42.1805 63.4376 42.3212 63.0978 42.5717 62.8472C42.8223 62.5967 43.1621 62.456 43.5164 62.456H50.0287C50.1624 62.4554 50.2928 62.415 50.4033 62.3398C50.5138 62.2646 50.5993 62.1582 50.6489 62.0341L54.9703 51.4872C55.3415 50.5758 55.9764 49.796 56.7937 49.2478C57.611 48.6996 58.5734 48.408 59.5575 48.4103H60.8484C61.944 48.4118 62.9942 48.8478 63.7687 49.6226C64.5433 50.3974 64.9789 51.4478 64.98 52.5433V65.5314C64.98 65.7093 65.0507 65.8799 65.1765 66.0057C65.3023 66.1315 65.4729 66.2022 65.6508 66.2022C65.8287 66.2022 65.9993 66.1315 66.1251 66.0057C66.2509 65.8799 66.3215 65.7093 66.3215 65.5314V52.5461C66.32 51.5314 66.037 50.5369 65.504 49.6735C64.9709 48.81 64.2088 48.1113 63.3023 47.6552ZM55.8633 42.5182C55.863 41.6172 56.1299 40.7365 56.6302 39.9872C57.1305 39.238 57.8418 38.654 58.6741 38.309C59.5063 37.9641 60.4222 37.8737 61.3059 38.0493C62.1895 38.2248 63.0012 38.6585 63.6384 39.2955C64.2755 39.9324 64.7095 40.744 64.8853 41.6276C65.0612 42.5112 64.9711 43.4271 64.6264 44.2595C64.2817 45.0919 63.6979 45.8033 62.9488 46.3039C62.1997 46.8044 61.319 47.0716 60.4181 47.0716C59.2108 47.0701 58.0533 46.5899 57.1995 45.7364C56.3457 44.8828 55.8651 43.7255 55.8633 42.5182Z" fill="white"/>
</svg>
