<svg width="63" height="63" viewBox="0 0 63 63" fill="none" xmlns="http://www.w3.org/2000/svg">
<path d="M52.4913 32.6025L50.6953 31.0674V0.984375C50.6953 0.712687 50.4748 0.492188 50.2031 0.492188H12.7969C12.5252 0.492188 12.3047 0.712687 12.3047 0.984375V9.35156H10.8281C10.5564 9.35156 10.3359 9.57206 10.3359 9.84375V62.0156C10.3359 62.2873 10.5564 62.5078 10.8281 62.5078H52.1719C52.4436 62.5078 52.6641 62.2873 52.6641 62.0156V32.9766C52.6641 32.8328 52.6011 32.696 52.4913 32.6025ZM49.7109 4.42969H13.2891V3.44531H49.7109V4.42969ZM13.2891 5.41406H49.7109V6.39844H13.2891V5.41406ZM49.7109 1.47656V2.46094H13.2891V1.47656H49.7109ZM13.2891 7.38281H49.7109V30.2262L25.421 9.46969C25.3324 9.3934 25.2187 9.35156 25.1016 9.35156H13.2891V7.38281ZM51.6797 61.5234H11.3203V10.3359H24.9199L51.6797 33.2035V61.5234Z" fill="white"/>
<path d="M17.7188 47.25V53.6484C17.7188 54.4625 18.3812 55.125 19.1953 55.125H43.8047C44.6188 55.125 45.2812 54.4625 45.2812 53.6484V47.25C45.2812 46.4359 44.6188 45.7734 43.8047 45.7734H19.1953C18.3812 45.7734 17.7188 46.4359 17.7188 47.25ZM44.2969 47.25V53.6484C44.2969 53.9196 44.0759 54.1406 43.8047 54.1406H19.1953C18.9241 54.1406 18.7031 53.9196 18.7031 53.6484V47.25C18.7031 46.9788 18.9241 46.7578 19.1953 46.7578H43.8047C44.0759 46.7578 44.2969 46.9788 44.2969 47.25Z" fill="#59A2B1"/>
<path d="M20.1797 49.7109H42.3281C42.5998 49.7109 42.8203 49.4904 42.8203 49.2188C42.8203 48.9471 42.5998 48.7266 42.3281 48.7266H20.1797C19.908 48.7266 19.6875 48.9471 19.6875 49.2188C19.6875 49.4904 19.908 49.7109 20.1797 49.7109Z" fill="#59A2B1"/>
<path d="M20.1797 52.6641H42.3281C42.5998 52.6641 42.8203 52.4436 42.8203 52.1719C42.8203 51.9002 42.5998 51.6797 42.3281 51.6797H20.1797C19.908 51.6797 19.6875 51.9002 19.6875 52.1719C19.6875 52.4436 19.908 52.6641 20.1797 52.6641Z" fill="#59A2B1"/>
</svg>
